<svg enable-background="new 0 0 43.59 42.982" height="312.613616" viewBox="0 0 43.59 42.982" width="319.8837" xmlns="http://www.w3.org/2000/svg" xmlns:xlink="http://www.w3.org/1999/xlink"><clipPath id="a"><path d="m0 0h43.59v42.982h-43.59z"/></clipPath><path clip-path="url(#a)" d="m26.579 1.731c1.078.486 2.415.197 3.6.197.82.046 1.595.273 2.096.987.335.38.653.805.866 1.245.304.396.592.805.941 1.185.273.152.517.41.82.517.987.546 2.096.79 3.037 1.412.456.517.836 1.063.957 1.716.167.866.41 1.701.729 2.506.244.471.684.835 1.063 1.2.456.395.957.851 1.307 1.321.349.532.562 1.124.485 1.823l-.137 1.306c-.137.729-.212 1.534-.045 2.293.334 1.276 1.078 2.37 1.23 3.722-.168 1.078-.912 1.913-1.352 2.885-.502 1.003-.745 2.157-.639 3.372.092.806.092 1.671-.455 2.278-.881 1.049-2.248 1.261-3.038 2.445-.956 1.23-.759 2.992-2.172 3.979-.501.364-1.154.396-1.762.547-.714-.046-1.276.319-1.898.485-.486.273-.957.639-1.367 1.063-.318.304-.501.638-.851.911-.334.305-.652.607-1.063.76-.334.106-.715.121-1.079.137-.379.016-.729 0-1.078-.061-.425-.137-.881-.152-1.321-.229-.623 0-1.307-.091-1.898.122-.273.061-.547.151-.805.243-.866.318-1.671.805-2.658.835-1.595-.091-2.521-1.762-4.101-1.838-.881-.151-1.884-.015-2.765-.075-.623-.137-1.23-.319-1.701-.836-.987-1.018-1.564-2.445-2.871-3.098-.638-.274-1.246-.563-1.914-.745-.668-.167-1.382-.531-1.701-1.215-.152-.38-.319-.759-.456-1.154l-.273-1.337c-.137-.91-.638-1.7-1.382-2.354-.486-.502-1.185-.941-1.519-1.564-.744-1.033-.38-2.537-.213-3.706.031-.622-.015-1.261-.197-1.808-.486-.972-.957-1.989-.942-3.144.091-1.033.805-1.792 1.352-2.627.471-.79.653-1.716.638-2.704-.058-1.013-.24-2.228.474-3.018.425-.653 1.108-.987 1.701-1.397.502-.486 1.185-.896 1.458-1.549.501-.76.775-1.625 1.109-2.461.501-.775 1.276-1.412 2.142-1.656 1.2-.304 2.415-.577 3.387-1.443.684-.546 1.124-1.321 1.868-1.747.395-.197.79-.395 1.23-.456 1.093-.076 1.974.38 3.053.349.501-.076 1.033-.106 1.488-.288.942-.304 1.792-.835 2.795-1.003 1.564-.135 2.551 1.126 3.827 1.672" fill="#6a0032"/><path clip-path="url(#a)" d="m23.42 2.977 1.625.243c1.2.198 2.369.517 3.479.972.714.273 1.412.577 2.096.911.865.578 1.808.957 2.612 1.701.684.577 1.397 1.079 2.065 1.701.35.273.517.684.836.987l.759.957c.425.668.957 1.291 1.321 1.975.896 1.549 1.504 3.205 1.99 4.921.273 1.154.395 2.369.471 3.6-.016.865.061 1.716-.061 2.567-.168 1.078-.273 2.187-.639 3.189-.531 1.989-1.458 3.797-2.566 5.543-1.944 2.81-4.814 5.194-7.791 6.425-.669.304-1.353.501-2.035.759-.957.259-1.898.532-2.916.684-.852.137-1.763.197-2.658.197-1.413-.045-2.841-.151-4.146-.471-.972-.182-1.884-.531-2.81-.835-2.02-.774-3.888-1.914-5.604-3.402-1.717-1.412-3.068-3.175-4.146-4.966-.44-.866-.896-1.732-1.246-2.643-.379-1.2-.775-2.385-.942-3.661-.395-1.792-.212-3.721.031-5.528.334-1.929.851-3.797 1.823-5.468.957-1.868 2.171-3.66 3.857-5.179.911-.927 1.929-1.61 2.946-2.294.835-.44 1.625-.972 2.506-1.291l.896-.38c.941-.304 1.853-.684 2.825-.896.79-.122 1.564-.273 2.384-.319 1.003-.105 2.02-.03 3.038.001" fill="#ffc82e"/><path clip-path="url(#a)" d="m25.029 3.478c.836.182 1.641.425 2.445.684.259 0 .441.212.684.228.502.122.927.441 1.413.578 1.124.577 2.218 1.215 3.25 2.004 1.519 1.169 3.083 2.582 4.101 4.207l.774 1.109c.699 1.139 1.23 2.354 1.655 3.6.365 1.185.729 2.384.806 3.69.35 2.203.076 4.542-.44 6.592-.41 1.686-1.094 3.235-1.929 4.739-1.14 1.853-2.673 3.705-4.511 5.072-.699.486-1.383 1.048-2.143 1.412-1.442.805-2.945 1.459-4.541 1.868-2.126.608-4.617.774-6.91.501-1.413-.182-2.779-.516-4.085-.972-1.443-.485-2.825-1.185-4.101-2.081-.881-.531-1.655-1.26-2.46-1.943-2.203-2.188-3.858-4.678-4.8-7.412-.289-.714-.456-1.488-.592-2.263-.334-1.625-.456-3.417-.273-5.119.136-1.534.485-2.977.957-4.374 1.063-2.764 2.658-5.376 5.073-7.503 1.139-.942 2.293-1.883 3.554-2.521.426-.258.881-.44 1.291-.714.304-.061.563-.258.851-.334.942-.289 1.823-.713 2.825-.866.638-.151 1.306-.258 1.975-.334l1.427-.091 1.975.045z" fill="#6a0032"/><path clip-path="url(#a)" d="m23.617 3.751c3.843.44 7.245 1.914 10.207 4.48 1.762 1.564 3.083 3.372 4.101 5.27.577 1.124 1.032 2.309 1.382 3.524.213 1.033.501 2.02.547 3.098.106 1.352.076 2.779-.106 4.086-.41 2.901-1.519 5.513-3.204 7.882-1.291 1.838-3.068 3.463-4.922 4.603-1.519.941-3.113 1.716-4.83 2.157-1.184.349-2.43.516-3.69.638-2.171.197-4.344-.092-6.303-.638-1.716-.547-3.356-1.246-4.86-2.279-1.397-.865-2.719-1.989-3.843-3.326-1.367-1.609-2.445-3.341-3.174-5.225-.334-.865-.668-1.716-.851-2.643-.273-1.428-.531-2.9-.41-4.45.03-2.004.517-3.842 1.139-5.619.759-1.762 1.686-3.478 2.992-5.027 1.488-1.792 3.372-3.296 5.301-4.359 1.291-.683 2.582-1.261 4.009-1.625 1.519-.441 3.175-.578 4.83-.608.561.046 1.138.046 1.685.061" fill="#ffc82e"/><path clip-path="url(#a)" d="m22.008 4.48c.061-.076.105-.182.228-.152.106.015.106.137.106.228l-.016.562c-.061.061-.167.046-.242.03-.076-.258-.35-.425-.608-.455-.182-.031-.364.061-.501.197-.243.258-.228.699-.106 1.002.046.167.228.319.395.364s.395.03.532-.076c.106-.076.243-.198.213-.35-.183-.061-.41 0-.608-.015-.122-.045-.091-.212-.061-.319.349-.061.729-.045 1.093-.045.106.137.015.304 0 .44-.091.349-.425.653-.774.698-.289.091-.562.031-.805-.106-.259-.106-.334-.395-.471-.607-.137-.425 0-.866.258-1.215.273-.273.653-.471 1.032-.334.106.047.213.123.335.153" fill="#6a0032"/><path clip-path="url(#a)" d="m20.018 4.557c.016.091.031.258-.121.228-.077-.016-.137.045-.137.121l.152 1.352c.091.122.334-.03.319.213.015.091-.03.182-.121.167-.274 0-.501.076-.76.076-.076-.061-.076-.182-.061-.288.061-.076.212-.016.228-.137-.045-.471-.061-.957-.167-1.397-.076-.137-.228.061-.258-.091 0-.091-.045-.182 0-.258l.106-.061c.259-.016.517-.061.76-.061z" fill="#6a0032"/><path clip-path="url(#a)" d="m24.695 4.632c.076.076.031.212 0 .304-.061.061-.182-.015-.212.091l.349 1.458c.046.106.213.015.229.152-.046.091.015.304-.152.258-.258-.061-.531-.106-.805-.137-.076-.061-.03-.183 0-.258.061-.122.334.061.288-.182-.015-.091-.061-.213-.167-.198-.288.046-.729-.334-.835.106 0 .182.259.045.243.228-.016.076 0 .182-.076.212l-.805-.106c-.092-.06-.031-.196-.016-.272.046-.061.137-.03.197-.061.305-.425.563-.896.806-1.352-.046-.106-.198-.031-.183-.167 0-.091.016-.182.092-.243.349.046.713.076 1.047.167" fill="#6a0032"/><path clip-path="url(#a)" d="m18.575 4.693c.015.076.03.152.015.243-.061.061-.182 0-.213.122l.319 1.336c.091.137.334-.106.334.152.015.061.061.152-.015.198l-.835.212c-.076-.076-.106-.212-.076-.319.061-.045.198-.015.212-.137-.061-.182-.045-.41-.182-.532l-.85.213c-.061.167.045.364.091.531.076.167.289-.091.304.137 0 .076.076.152.015.228l-.835.198c-.091-.046-.106-.167-.106-.274.03-.106.182-.045.213-.167l-.334-1.336c-.076-.106-.167.045-.258-.03-.03-.091-.106-.183-.061-.304.273-.106.577-.228.881-.213.03.106.167.304-.015.35-.061 0-.122.03-.137.091.045.137.015.334.167.41l.82-.197c.091-.137-.03-.304-.046-.44-.106-.137-.304.106-.319-.137-.03-.091-.045-.228.076-.258.258-.061.501-.152.774-.167z" fill="#6a0032"/><path clip-path="url(#a)" d="m26.564 5.073c.258.532.318 1.139.501 1.701.015.015.061.045.091 0l.304-1.002c-.015-.137-.197-.046-.213-.183.016-.091.03-.243.137-.212l.729.228c.076.076.015.182 0 .273-.106.076-.289-.122-.334.076l-.563 1.595c-.106 0-.258-.046-.379-.106l-.426-1.747c-.03-.03-.076-.045-.106 0l-.334 1.063c.015.106.151.076.197.182 0 .106-.03.197-.106.258-.273-.122-.577-.152-.805-.304.016-.091.03-.213.121-.258.061 0 .183.076.229-.045.182-.41.303-.851.455-1.276 0-.167-.35-.122-.182-.349 0-.137.166-.122.242-.076z" fill="#6a0032"/><path clip-path="url(#a)" d="m24.164 5.24.076.456c-.121.122-.304.015-.44 0l-.046-.061.304-.532c.09-.015.076.091.106.137" fill="#ffc82e"/><path clip-path="url(#a)" d="m15.902 5.68c-.015.213.365.441.061.592-.243.091-.228-.318-.486-.289-.243-.045-.471 0-.653.167-.152.152-.213.35-.183.578.046.228.152.425.334.592.182.121.395.228.623.136.289-.045.486-.364.532-.623.091-.061.182.015.273.045.061.258-.106.501-.273.699-.289.273-.684.334-1.048.288-.289-.076-.562-.273-.713-.546-.198-.365-.213-.972.091-1.306.258-.289.592-.501 1.002-.395.061-.091.106-.198.228-.228.151.002.151.184.212.29" fill="#6a0032"/><path clip-path="url(#a)" d="m13.669 6.592c.031.137-.152.121-.167.228.167.41.426.775.623 1.169.091.198.212-.045.334.046.061.091.167.182.091.289l-.729.395c-.106-.015-.122-.137-.152-.212-.015-.122.167-.091.167-.213l-.698-1.215c-.106-.061-.228.091-.304-.03-.045-.061-.091-.137-.061-.228.243-.122.455-.319.713-.41.122-.017.138.12.183.181" fill="#6a0032"/><path clip-path="url(#a)" d="m31.029 7.123c.016.106-.076.213-.167.273-.091-.015-.152-.152-.243-.061l-.699 1.064c-.061.273.273.425.441.547.105.061.273.091.395.03.304-.319.517-.714.76-1.079.03-.136-.183-.106-.168-.243.046-.076.076-.167.152-.197.243.106.455.289.668.44.061.106-.061.198-.106.273-.121-.106-.304-.061-.349.091-.35.395-.502 1.246-1.2 1.109-.395-.213-1.048-.456-1.003-1.033.031-.197.213-.349.305-.516.121-.273.334-.501.471-.774 0-.076-.106-.091-.122-.152.016-.091.046-.183.137-.243l.091.03z" fill="#6a0032"/><path clip-path="url(#a)" d="m12.469 7.336c-.045.091-.258.151-.122.288l.79 1.033c.106.061.167-.106.273-.061.061.076.167.152.122.258l-.653.501c-.122.015-.167-.122-.212-.198-.016-.121.212-.151.106-.288l-.729-.957c-.076 0-.045.106-.015.137l.41 1.352c-.061.076-.152.152-.258.106l-1.139-.744c-.015 0-.061-.016-.061.015.182.334.456.623.668.942.106.091.182-.091.304-.045.045.076.197.152.121.258l-.638.486c-.091.016-.152-.106-.182-.182-.091-.152.243-.167.106-.334-.273-.349-.562-.729-.835-1.048-.091-.015-.152.122-.258.061-.061-.061-.122-.151-.091-.243l.653-.501.106.031.851.577c.03.016.091 0 .091-.061l-.304-1.033.03-.091.668-.486c.123.014.153.136.198.227" fill="#6a0032"/><path clip-path="url(#a)" d="m25.105 7.943c.927.273 1.822.577 2.674 1.002 1.913 1.002 3.888 2.354 5.209 4.283.638.82 1.063 1.731 1.549 2.627.639 1.397 1.14 2.84 1.276 4.435.273 2.218-.106 4.466-.806 6.425-.865 2.187-2.156 4.329-4.191 5.923-.881.775-1.883 1.322-2.886 1.838-1.64.836-3.433 1.322-5.376 1.443l-1.215.016c-.365-.062-.759 0-1.109-.092-1.898-.197-3.63-.789-5.27-1.625-.578-.426-1.215-.714-1.762-1.215-2.886-2.385-4.845-5.438-5.315-8.977-.198-1.473-.273-3.159.045-4.602.152-1.14.516-2.188.941-3.22.881-2.035 2.233-3.995 4.116-5.513 1.944-1.503 4.055-2.582 6.485-2.946.668-.122 1.367-.152 2.035-.213 1.263.001 2.416.184 3.6.411" fill="#6a0032"/><path clip-path="url(#a)" d="m24.559 8.536c1.534.349 2.992.941 4.329 1.792 2.369 1.306 4.207 3.782 5.255 6.105.35.911.699 1.807.836 2.794.273 1.64.364 3.432.029 5.088-.531 2.476-1.594 4.754-3.371 6.697-.714.699-1.458 1.307-2.232 1.869-.82.531-1.641 1.047-2.566 1.336-.79.395-1.702.531-2.553.76-.516.105-1.048.166-1.579.228-.851.061-1.747.03-2.597-.046-2.096-.379-4.116-.957-5.847-2.232-.714-.456-1.352-1.094-2.02-1.671-.851-.896-1.625-1.853-2.157-2.886-.577-1.139-1.139-2.263-1.382-3.539-.152-.562-.243-1.169-.319-1.762-.106-1.701.03-3.402.44-4.951.304-.987.699-1.944 1.154-2.886.851-1.428 1.929-2.855 3.296-3.979 1.2-.881 2.399-1.747 3.782-2.172 1.428-.532 2.917-.896 4.542-.881 1.016-.013 2.018.093 2.96.336" fill="#ffc82e"/><path clip-path="url(#a)" d="m33.201 8.764v.228l-.243 1.473c.03.061.091.046.122 0l.652-.729c.03-.121-.197-.167-.105-.288.075-.167.228-.106.334.015l.439.44c-.015.076-.091.152-.166.198-.076-.061-.213-.182-.305-.045-.379.41-.759.851-1.154 1.215-.121-.045-.242-.167-.318-.273l.35-1.762c-.031-.076-.122-.03-.152.03l-.698.759c-.062.122.151.152.091.258-.061.061-.091.152-.183.182-.212-.167-.409-.395-.607-.577-.03-.106.106-.167.183-.198.091-.015.152.122.242.061l.957-1.033c.016-.121-.212-.182-.061-.304.046-.045.121-.167.183-.061z" fill="#6a0032"/><path clip-path="url(#a)" d="m20.625 9.188c.683-.106 1.473-.197 2.171-.045.243-.274.639-.016.912.061.137.076.288.106.395.243-.016.151-.183.273-.273.379-.228.015-.517-.379-.653.015-.197.03-.349-.106-.531-.122-.806-.197-1.731-.106-2.521.061-.091-.03-.045-.167-.152-.198-.197.031-.379.061-.532.152-.151-.061-.197-.243-.212-.395.106-.167.304-.197.486-.258.258-.015.668-.258.835.061z" fill="#6a0032"/><path clip-path="url(#a)" d="m20.094 9.128c-.015.076-.167.076-.137.198 0 .045.061.122-.015.167-.182.015-.334.152-.516.091-.046-.091-.137-.198-.046-.273.228-.107.455-.183.714-.183" fill="#ffc82e"/><path clip-path="url(#a)" d="m23.921 9.447c.046.061 0 .137-.045.197-.167.167-.319-.076-.486-.106-.015-.122-.015-.273-.151-.35l.015-.03c.242.046.455.153.667.289" fill="#ffc82e"/><path clip-path="url(#a)" d="m23.146 9.417c.091.045.061.167.016.243-.152.152-.35-.031-.532-.061-.471-.106-1.018-.091-1.519-.061l-.911.137c-.076-.061-.106-.167-.076-.258l.076-.061c.942-.182 2.05-.335 2.946.061" fill="#ffc82e"/><path clip-path="url(#a)" d="m21.901 10.009c.061.106-.091.183-.016.289.062.106.213.076.288.031.107-.122.229-.228.396-.198.151.045.228.213.288.334l.35.926-.015.106c-.289-.182-.547-.608-.942-.411-.076.046-.166.122-.166.198.09.106 0 .273.105.35.168-.031.243-.274.44-.228.016.046-.015.121.076.137.046 0 .091-.016.137.015-.015.061-.151.076-.091.152.03.046.182.015.121.106-.076.03-.182-.015-.213.076.016.061.092.091.092.167-.229.121-.289-.228-.517-.122-.106.167-.273.03-.425.045-.152 0-.289.03-.426.076-.03-.046 0-.106-.061-.137-.167.015-.304.121-.441.212-.182.045-.106-.182-.197-.258.03-.106-.091-.106-.137-.167.182-.167.456-.167.684-.076.015.015.045.076.076.045.016-.137.016-.304 0-.44-.212-.137-.501-.122-.714.015l-.393.352-.046-.015v-.136c.183-.396.304-.82.562-1.185.243-.182.456.091.653.198.045 0 .076-.016.091-.061-.046-.137-.426-.167-.213-.379.167 0 .273-.228.455-.122z" fill="#6a0032"/><path clip-path="url(#a)" d="m23.921 10.039c.152.016.273-.015.38.106.152-.015.213.182.365.152.045.061.121.137.212.075.03-.015.061-.045.106-.045.137.198-.258.365-.016.501-.045.122-.182.289-.318.289-.092.197.076.379.045.592.092.517-.485.759-.379 1.276.061.258.288.471.455.684 0 .243.471.501.106.668-.061.015-.122.091-.075.137-.016.136.151.243.075.379-.106.198-.38.35-.395.563.075.121.364.167.228.334-.79 1.033-1.914 1.61-3.235 1.534-.987-.061-1.899-.668-2.43-1.549-.03-.137.243-.198.061-.334-.106-.212-.289-.41-.456-.592-.031-.061 0-.106.03-.152.091 0 .031.122.076.167.182.197.364.41.471.638.03 0 .061-.015.076-.045-.091-.258-.364-.456-.258-.76.045-.182.137-.395.03-.577.091.016.137.334.289.106.319-.289.532-.653.577-1.063l-.091-.061c.121-.106.273.016.395.03-.349-.061-.197.38-.364.547-.03.289.137.623-.045.881-.092.137-.152.304-.092.456.152.456.668.137 1.033.243.182.015.38.076.547.061.045-.198-.228-.198-.243-.364.152.015.319.136.486.061-.212-.213-.638-.137-.729-.486-.045-.273.137-.698-.243-.79-.182-.076.076-.228-.106-.334.015-.045.061-.107.03-.167l-.197-.091c.091 0 .182.015.243.076.03.151.106.304.091.471.03.045.091.106.137.045.045-.152.045-.349 0-.516-.289-.304-.714-.365-1.063-.547-.045-.016-.045-.046-.045-.076.091-.046.258.197.319.015-.122-.304-.41-.532-.578-.82-.015-.076 0-.198.091-.213.106.046.319.076.35-.091-.015-.182-.228-.122-.334-.167-.092-.122-.198-.197-.35-.182-.152.152-.41 0-.577.045-.045.045 0 .091.03.122.045.091.182 0 .197.106-.273.623.395.987.41 1.549-.045.577-1.078.912-.547 1.55-.106.015-.167.197-.273.121l-.031-.091c.061-.364.061-.759.395-1.017.137-.198.395-.365.349-.638-.106-.471-.623-.82-.44-1.382 0-.167-.304-.152-.212-.364.061-.061.182-.03.197-.137.046-.228-.44-.334-.091-.517.03.031.03.091.091.106.106-.091-.076-.243.091-.334.122.015.228-.076.258-.183.03-.045.106-.045.152-.03.061.258.425-.228.41.137-.091.03-.167.122-.183.197-.015.046.015.076.046.076.151-.061.137-.288.349-.273.106.015.076.213.228.167.061 0 .106.046.137.076-.03.137-.228.046-.319.121-.198.106-.486.243-.517.501.122.182.289.228.486.258.046.091.137.228.046.334-.076.152-.243-.045-.319.091 0 .273.319.395.41.623.289.091.592-.212.911-.03.167.304.456-.03.699-.03.349-.045.683.076 1.033.106l.334-.213.41.03c.197-.228.532-.364.639-.668 0-.031-.031-.061-.062-.061-.121.03-.197.198-.334.137-.106-.092-.106-.243-.106-.365.168-.182.44-.243.531-.501-.075-.258-.363-.046-.576-.106-.122-.015-.183-.151-.213-.258l.016-.122c.09-.031.151.122.258.045.091-.228.213.137.258-.091 0-.091.016-.183.061-.273.061 0 .061.091.106.121" fill="#6a0032"/><path clip-path="url(#a)" d="m25.622 10.07c-.137.228-.151.516-.334.699-.076-.061-.015-.198.015-.289.047-.197.152-.379.259-.562.076 0 .045.091.06.152" fill="#6a0032"/><path clip-path="url(#a)" d="m21.749 10.07c0 .137.03.273.152.349.273.182.425-.243.698-.182.197.243.289.546.396.82-.106.122-.213-.091-.335-.091-.182-.076-.379-.015-.547.046-.091-.107-.061-.304-.182-.411 0-.015-.016-.015-.046-.015 0 .137.091.289.091.456.016.152-.045.274-.137.38-.045.091.076.243-.061.273-.243.061-.121-.228-.212-.334-.258-.212-.137-.577-.091-.835.046-.076.091-.167.046-.243-.046-.061-.182-.091-.167-.197.122-.031.304-.214.395-.016" fill="#ffc82e"/><path clip-path="url(#a)" d="m24.285 10.252.517.273c-.015.212-.38-.015-.425.228-.03.091.03.152.106.167.106.016.212-.061.318-.015 0 .091-.091.107-.151.122-.061-.015-.121.015-.152.076.137.395.197.957-.121 1.275-.122.167-.213.334-.183.547-.015.425.532.593.547.987l-.046.593.092.304c-.152.151-.228.38-.41.471.121-.198.258-.471.061-.668-.137-.197-.243-.41-.243-.683-.03.091-.151.121-.212.076-.335-.228-.396-.607-.517-.926-.016-.046.015-.106.091-.106.046-.015.091.045.137 0-.076-.122-.273-.061-.395-.015-.273.091-.426.364-.471.623 0 .03.015.122-.031.122-.105-.122-.045-.334-.015-.471.212-.364.622-.471.896-.774v-.03c-.091 0-.242.228-.303.03.045-.41.531-.562.698-.896.03-.076-.016-.182-.106-.212-.137-.03-.213.167-.35.091-.061-.061-.061-.167-.03-.243l.304-.122c.092-.152.197-.319.395-.334.076-.03.031-.122 0-.182-.091-.197-.546-.152-.364-.456.136-.004.242.072.363.148" fill="#ffc82e"/><path clip-path="url(#a)" d="m17.846 10.282c.061.273.258.501.243.774-.106.016-.106-.106-.152-.182-.045-.243-.319-.456-.228-.729.076-.015.122.077.137.137" fill="#6a0032"/><path clip-path="url(#a)" d="m19.137 10.328c-.152.197-.41.44-.258.713-.015.046-.061.015-.076-.015l-.137-.334c.061-.076.152-.137.137-.243.091.016.213-.045.213-.152l.045-.076c.03.015.091.061.076.107" fill="#ffc82e"/><path clip-path="url(#a)" d="m19.714 10.237c-.091.106.122.243-.076.273-.152.106-.319.228-.41.395-.045-.016-.076-.076-.061-.137.046-.076.137-.136.122-.243.076 0 .212.03.273-.061.061-.075.046-.197.152-.227" fill="#ffc82e"/><path clip-path="url(#a)" d="m35.313 10.966c0 .106-.122.152-.183.212-.121-.015-.197-.243-.319-.091l-1.002.82c-.061.152.228.304-.03.41-.046.03-.091.076-.151.046l-.532-.668c-.03-.106.106-.167.167-.228.137-.03.182.228.319.106l1.048-.896c0-.106-.167-.167-.076-.273.061-.061.137-.137.229-.076z" fill="#6a0032"/><path clip-path="url(#a)" d="m21.37 10.586c-.015.137-.076.273-.076.425-.106.091-.197-.045-.319-.015-.228.03-.41.167-.607.289l-.03-.03c.106-.304.243-.592.41-.866.227-.213.424.121.622.197" fill="#ffc82e"/><path clip-path="url(#a)" d="m23.876 10.465c-.138.045-.335.091-.472 0-.015-.046.046-.061.076-.076.137.015.334-.031.396.076" fill="#ffc82e"/><path clip-path="url(#a)" d="m24.194 10.586c0 .015 0 .061-.03.046-.046 0-.091-.046-.061-.091.045 0 .077.015.091.045" fill="#ffc82e"/><path clip-path="url(#a)" d="m26.762 10.632c-.472 1.108-.987 2.217-1.534 3.28l-.046-.045c.44-1.109 1.003-2.157 1.443-3.266.03-.045.137-.045.137.031" fill="#6a0032"/><path clip-path="url(#a)" d="m16.646 10.677c.547 1.063 1.002 2.141 1.549 3.205l-.015.061c-.122 0-.167-.152-.228-.258-.425-.866-.82-1.762-1.276-2.628-.061-.137-.182-.288-.106-.425z" fill="#6a0032"/><path clip-path="url(#a)" d="m24.619 10.769c0 .03-.045.061-.09.03-.016-.015-.016-.061 0-.061.03 0 .075-.015.09.031" fill="#ffc82e"/><path clip-path="url(#a)" d="m19.061 10.89c0 .046-.031.076-.061.046-.045-.03-.061-.076-.03-.122.046 0 .091.045.091.076" fill="#ffc82e"/><path clip-path="url(#a)" d="m8.293 11.133c.03.137-.198.167-.137.304l1.063.866c.197-.076.319-.289.44-.456-.015-.152-.365-.197-.198-.395.091-.045.137-.258.273-.167l.456.41-.046.137c-.364.395-.653.82-1.002 1.23-.106.046-.182-.045-.243-.137-.016-.091.137-.152.076-.243l-1.093-.896c-.137-.03-.137.212-.273.137-.061-.076-.198-.152-.137-.259.212-.228.364-.486.577-.698.107-.015.198.076.244.167" fill="#6a0032"/><path clip-path="url(#a)" d="m24.316 11.042c0 .091-.092.045-.152.061-.016-.015-.061.015-.076-.03-.03-.061.061-.076.092-.106.06-.017.121.014.136.075" fill="#6a0032"/><path clip-path="url(#a)" d="m15.522 11.163c.592 1.109 1.321 2.157 1.898 3.281.577.972 1.169 1.944 1.716 2.931.167.167.41.122.623.183.061-.016.061-.091.03-.137-.137-.213-.273-.44-.319-.668.152.015.152.228.258.319.137.197.167.623.516.547.167-.106-.076-.289.015-.41.167.137.167.638.517.456.061-.061-.046-.152.03-.197.122.122.183.41.425.334.076-.061-.031-.167.045-.228.137.137.152.471.41.456.091-.122-.03-.334.091-.44.137.106 0 .35.106.486.319-.03.243-.38.38-.547.152.061-.061.213.076.273.137-.015.318-.03.364-.197.061-.076.061-.243.167-.228.046.106-.121.243.03.289.213-.076.517.03.623-.212.091-.197.183-.395.319-.562.061.015.03.106.015.136l-.213.441c.092.152.289.03.426 0 1.321-2.02 2.339-4.177 3.6-6.227.046-.03.076-.091.136-.076.062.091-.029.183-.06.258-1.216 1.959-2.233 3.995-3.448 5.938-.016.045.03.061.061.076l.486-.061c1.336-1.868 2.598-3.767 3.949-5.62.015-.015.061-.03.076-.015.045.183-.138.319-.229.456l-2.202 3.144c-.44.638-.896 1.276-1.337 1.914-.015.045.031.076.062.091l.683-.122c1.383-1.549 2.598-3.174 3.995-4.738.015-.015.075-.015.075.015l-.015.106c-.638.835-1.382 1.579-2.005 2.415l-1.792 2.096c-.016.045.03.091.061.076l.668-.106c1.321-1.2 2.521-2.415 3.843-3.645.046-.015.076.015.092.061l-.046.091c-1.17 1.109-2.385 2.248-3.569 3.372-.016.045.03.076.061.076.426-.076.866-.122 1.261-.289 1.094-.699 2.126-1.519 3.22-2.233.031-.015.076 0 .076.046l-.061.091c-.987.684-1.944 1.413-2.947 2.065-.045.061 0 .122.046.167.091.061.243.061.273.197l.213.106c1.003-.501 1.959-1.124 2.977-1.595.03-.015.062.015.062.045l-.076.091-2.688 1.473c-.03.03-.046.076-.03.106.076.076.258 0 .242.152 0 .182-.061.425.092.516 1.018-.41 1.989-.911 3.037-1.275.046 0 .046.061.031.091-.38.243-.836.334-1.23.532l-1.838.79-.076.106.03.805.061.045 1.094-.319c.091-.031.106-.122.091-.212.122 0 .243.197.38.076.623-.228 1.261-.365 1.899-.577.09-.015.061-.198.182-.122.471 1.321.684 2.779.653 4.252-.046 1.018-.243 1.959-.471 2.886-.639 2.277-1.884 4.358-3.782 6.045 0 .197.243.35.197.576-2.126 1.701-4.571 2.644-7.275 2.978-3.204.183-6.09-.698-8.581-2.415-.106-.137-.441-.182-.334-.41.061-.121.228-.228.167-.379-1.321-1.186-2.627-2.507-3.296-4.056-.592-1.033-.896-2.173-1.154-3.341-.395-1.838-.334-4.025.152-5.803.045-.045.091.016.122.046.106.182.152.44.364.516.592.137 1.2.228 1.792.38l.471-.41c.076-.03.091.061.076.106-.016.152-.167.349 0 .456l1.124.228.061-.076v-.668l-.137-.091c-1.139-.395-2.233-.912-3.372-1.276-.061-.03-.121-.091-.076-.152.061-.061.152 0 .212.015 1.109.44 2.218.881 3.326 1.321l.076-.091-.016-.805c-1.017-.471-2.02-1.018-3.037-1.504-.031-.03-.061-.061-.046-.106.122-.091.228.045.334.061.912.441 1.808.912 2.704 1.367.091-.03.137-.091.258-.091.016-.106.122-.167.228-.152.015-.152.167-.091.228-.182-.243-.243-.562-.41-.851-.623-.683-.501-1.427-.881-2.096-1.412-.015-.031-.015-.061.015-.091l.106.015c.957.607 1.914 1.246 2.84 1.929.091.015.213.076.289 0 .031-.046.015-.122.091-.137l1.018.122c.03-.016.061-.061.03-.092-.774-.653-1.534-1.397-2.324-2.02-.425-.319-.79-.729-1.215-1.048 0-.03-.031-.061 0-.091.137-.061.212.122.319.182 1.185 1.048 2.399 2.05 3.554 3.114.258.045.516.136.79.122.046-.016.03-.061.015-.092-.668-.683-1.245-1.427-1.929-2.096-.562-.698-1.261-1.352-1.823-2.05 0-.03 0-.091.046-.091l.106.045c1.276 1.443 2.552 2.855 3.828 4.298.258.106.562.137.835.152.061-.03.031-.076 0-.122-1.23-1.762-2.597-3.463-3.857-5.225 0-.03 0-.076.03-.091l.091.03c1.336 1.808 2.734 3.6 4.009 5.453.061.045.198 0 .228.106-.106.106-.258 0-.379.015-1.094-.197-2.188-.35-3.281-.486l-.076.091c.091 1.64-.015 3.341.061 4.981-.061.912.03 1.853 0 2.764-.031.304-.016.593.015.882l.106.075c2.021.167 4.025.364 6.015.607.289.046.638.137.729.471.152.092.168-.151.273-.212.365-.426.957-.319 1.474-.41l3.661-.35 1.503-.152.061-.075-.046-3.752c-.045-1.64-.045-3.28-.075-4.89l-.076-.061c-1.488.289-3.038.44-4.541.684-.79.152-1.701.045-2.233.714-.182.045-.166-.198-.318-.228l-.425-.213c-.729-.152-1.473-.243-2.202-.365-.045-.015-.045-.061-.03-.091.03-.031.076-.031.091-.076-1.124-2.065-2.384-4.07-3.524-6.136l.031-.076z" fill="#6a0032"/><path clip-path="url(#a)" d="m19.319 11.346c-.016.061-.106.045-.152.03-.03-.03.016-.076.046-.091.045 0 .091.015.106.061" fill="#6a0032"/><path clip-path="url(#a)" d="m36.102 12.014c0 .122-.121.183-.213.213-.105-.016-.105-.197-.227-.152-.259.319-.532.653-.76.987-.016.061.061.061.106.061l1.139-.319c.106-.122-.183-.258.03-.35.061-.03.106-.091.183-.045l.455.684c.03.106-.091.167-.167.212-.106.03-.137-.091-.197-.122-.638.106-1.23.319-1.868.441-.106-.122-.304-.274-.273-.471.396-.486.729-1.002 1.124-1.503.046-.106-.183-.183-.016-.273.076-.015.122-.137.213-.061z" fill="#6a0032"/><path clip-path="url(#a)" d="m21.552 11.573c-.015.045 0 .167-.076.122-.045-.076-.106-.167-.061-.273.091-.092.137.091.137.151" fill="#ffc82e"/><path clip-path="url(#a)" d="m22.053 11.649c-.03.03-.045.076-.076.045-.045-.061-.045-.152-.029-.228.12-.06.09.107.105.183" fill="#ffc82e"/><path clip-path="url(#a)" d="m22.555 11.832v.03h-.062l.016-.045c.014-.001.03-.001.046.015" fill="#ffc82e"/><path clip-path="url(#a)" d="m23.283 12.348c-.016.046.016.152-.076.152-.105-.03-.273-.03-.273-.167-.03-.045.03-.091.061-.091.091.03.243-.015.288.106" fill="#ffc82e"/><path clip-path="url(#a)" d="m20.58 12.348c.015.258-.304.137-.441.243-.061-.015-.061-.091-.03-.137.152-.06.304-.121.471-.106" fill="#ffc82e"/><path clip-path="url(#a)" d="m22.843 12.454c.091.031.091.122.091.198-.151.152-.288.349-.288.577-.03.44.151.866 0 1.261-.229.243-.532.38-.82.486-.289-.122-.623-.152-.851-.395l-.061-.137c-.091-.501.045-1.018-.122-1.488-.091-.122-.365-.213-.182-.395.106-.137.288.015.456-.046.243-.03.425-.197.683-.182.396-.031.698.243 1.094.121" fill="#ffc82e"/><path clip-path="url(#a)" d="m23.207 12.637c0 .061-.015.137-.076.137h-.029c-.031-.046-.047-.137 0-.183.044 0 .075.015.105.046" fill="#ffc82e"/><path clip-path="url(#a)" d="m20.428 12.788c-.03.076-.106 0-.151 0-.031-.03-.076-.061-.046-.106.091-.091.212.015.197.106" fill="#ffc82e"/><path clip-path="url(#a)" d="m7.108 12.849c-.015.076-.122.167.015.213.501.03.987.152 1.489.167.045-.076.122-.198.228-.107.061.046.152.061.152.152l-.44.79c-.091.045-.167-.045-.243-.091-.107-.122.122-.213 0-.319-.061-.046-.167-.061-.243-.046-.152.228-.289.44-.395.684 0 .106.106.167.167.243.122.015.106-.167.228-.183.076.045.197.061.212.167-.091.258-.258.486-.395.729-.106.03-.182-.076-.258-.106 0-.122.015-.258-.091-.365-.289-.349-.577-.714-.851-1.063-.121 0-.121.197-.258.106-.061-.031-.122-.076-.137-.137.152-.334.38-.623.517-.957.106-.075.242.032.303.123" fill="#6a0032"/><path clip-path="url(#a)" d="m22.919 12.895c.015.046-.03.091-.061.091s-.03-.045-.016-.061c.016-.03.047-.03.077-.03" fill="#ffc82e"/><path clip-path="url(#a)" d="m23.375 13.183c.029.243.197.425.242.668-.106.228-.137.562.031.759-.046.228-.273.365-.41.532-.472.076-.896.197-1.246.517-.152 0-.213-.167-.35-.228-.091-.061-.243-.061-.288-.167.03-.03.076-.045.106-.091l-.076-.091c.076-.045.197-.015.273.015.03.016.03.046.03.076-.03.045-.137.015-.106.106.031.061.121.045.152.015.061-.046.061-.122.03-.182-.016-.031-.062-.046-.062-.091.41-.015.806-.243 1.049-.592.076-.228-.122-.577.167-.699 0-.106 0-.228.106-.319-.076-.183.105-.273.213-.365.077-.015.139.077.139.137" fill="#ffc82e"/><path clip-path="url(#a)" d="m22.479 13.229c.121.259.076.593.091.896.151.517-.471.517-.714.729-.289-.075-.607-.151-.82-.379-.031-.365-.045-.745-.031-1.14.046-.121.213-.061.319-.091.395 0 .775-.046 1.155-.015" fill="#6a0032"/><path clip-path="url(#a)" d="m22.509 13.426c0 .258.061.531-.016.775-.121.015-.197-.198-.334-.062-.061.046-.091.152-.197.107-.03-.228-.213.091-.258-.137 0-.045.03-.106.091-.106.045-.015.076.03.106.061.046-.031.106-.107.061-.152l-.243-.045c-.061-.076.016-.213-.106-.243-.228.03-.045.304-.197.395-.121-.106-.35-.015-.379-.197.045-.183-.091-.471.122-.517.41.015.835.015 1.261-.03.073.015.103.09.089.151" fill="#ffc82e"/><path clip-path="url(#a)" d="m7.655 13.563c-.045.152-.106.273-.198.395h-.091l-.349-.456.03-.061c.198.031.41.046.608.122" fill="#ffc82e"/><path clip-path="url(#a)" d="m37.074 13.639c.273.501.471 1.048.744 1.549-.106.198-.35.228-.517.334-.151 0-.137-.167-.197-.243-.061-.198.197-.137.228-.289-.076-.198-.137-.41-.288-.577-.137.045-.335.061-.396.228.031.182.304.395.092.546-.076.015-.137.091-.213.03-.076-.152-.121-.334-.273-.456-.182.061-.38.106-.517.258.076.212.151.425.273.607.151.076.273-.137.41-.03.03.106.137.197.091.319-.197.106-.41.167-.607.228l-.106-.137c-.212-.501-.455-1.002-.668-1.503.061-.091.151-.106.243-.137.106.031.076.182.182.198.441-.167.852-.365 1.276-.562.091-.106-.137-.349.137-.365.03.002.076-.029.106.002" fill="#6a0032"/><path clip-path="url(#a)" d="m19.866 14.019c.076.334-.183.517-.228.79-.015.152.106.258.137.379h-.061c-.061-.212-.364-.395-.152-.638.045-.228-.091-.516.182-.668.092-.015.107.091.122.137" fill="#ffc82e"/><path clip-path="url(#a)" d="m23.921 14.109c-.03.183-.091.38-.015.563-.092.182-.35.197-.395.425-.016.016-.062.046-.076 0 .076-.182.288-.243.318-.456.016-.122-.105-.197-.121-.319 0-.137-.016-.273.106-.35.062.016.138.062.183.137" fill="#ffc82e"/><path clip-path="url(#a)" d="m24.878 14.14v.015h-.03v-.046c.015 0 .03.016.03.031" fill="#ffc82e"/><path clip-path="url(#a)" d="m22.342 14.262c-.03.03-.092.015-.137.015-.03-.015-.016-.061 0-.076.045-.046.197-.046.137.061" fill="#ffc82e"/><path clip-path="url(#a)" d="m24.119 14.201c.045.304.409.501.318.82-.106.122-.213.349-.41.228-.121-.076-.334-.016-.41-.152.092-.167.258-.288.41-.41 0-.137-.137-.288-.045-.44.03-.031.091-.061.137-.046" fill="#ffc82e"/><path clip-path="url(#a)" d="m19.517 14.368c.076.212-.228.349-.061.531.045.122.182.243.152.38-.076.045-.152.091-.243.061-.197-.243-.304-.607-.152-.911.06-.092.258-.274.304-.061" fill="#ffc82e"/><path clip-path="url(#a)" d="m22.387 14.444c-.015.137-.228.03-.228.213-.197-.015-.288.243-.501.091-.046-.167-.258-.045-.319-.198-.045-.015-.152.016-.167-.045.045-.092.136 0 .212.015.197-.152.44.061.638-.076.123.061.244-.031.365 0" fill="#ffc82e"/><path clip-path="url(#a)" d="m22.053 14.581c-.03.045-.076.015-.121-.015 0-.016.09-.016.121.015" fill="#6a0032"/><path clip-path="url(#a)" d="m22.357 15.203c-.076.076-.138-.045-.213-.061.03-.045.242-.03.151-.167.062-.031.137-.106.197-.061-.029.092-.15.168-.135.289" fill="#6a0032"/><path clip-path="url(#a)" d="m22.22 15.006c-.045.045-.121.061-.212.045.03-.075.137-.06.212-.045" fill="#6a0032"/><path clip-path="url(#a)" d="m6.485 15.219c.076.076.061.197.137.258.304-.273.714.38.865-.121.106-.031.183.061.273.075.061.229-.137.396-.167.608-.152.152-.319-.091-.516-.091-.122-.045-.289-.121-.41-.015-.105.136-.167.273-.197.424.152.122.349.197.532.197.061-.091.091-.243.243-.167.045.03.122.046.152.122l-.289.835c-.122.076-.212-.03-.304-.045-.122-.106.152-.319-.106-.349l-1.215-.426c-.106.015-.061.167-.152.183-.106-.031-.258-.016-.289-.137.212-.486.304-1.033.699-1.458.213-.152.577-.121.744.107" fill="#6a0032"/><path clip-path="url(#a)" d="m22.068 15.188c0 .031.016.137-.046.152-.061 0-.137-.045-.137-.106 0-.03 0-.076.03-.091.032.045.093.06.153.045" fill="#6a0032"/><path clip-path="url(#a)" d="m20.61 15.613c0 .061-.061.061-.106.045-.258-.061-.517-.122-.744-.243.015-.122.167-.076.258-.106.228.001.471.092.592.304" fill="#ffc82e"/><path clip-path="url(#a)" d="m23.511 15.325c.046.061-.075.106-.015.152.151-.076.318-.167.486-.137.045.046-.016.091-.046.091-.593.152-1.185.379-1.823.364-.029-.136.152-.228.259-.289.03-.015.061.03.046.061 0 .03-.031.061 0 .091.105 0 .151-.183.258-.228.03-.015.045-.045.076-.03.03.076-.092.136-.016.212.137-.106.243-.258.41-.273.046.091-.121.152-.03.213.107-.121.228-.212.395-.227" fill="#ffc82e"/><path clip-path="url(#a)" d="m20.959 15.689c-.031.076-.137.045-.182.015-.091-.015-.016-.137-.076-.182-.045-.061-.182-.106-.122-.183.168.031.305.198.38.35" fill="#ffc82e"/><path clip-path="url(#a)" d="m20.975 15.416v.03h-.03l-.015-.061c.029-.015.06.015.045.031" fill="#ffc82e"/><path clip-path="url(#a)" d="m24.604 15.644c-.805.319-1.64.532-2.521.638-.684.03-1.276-.137-1.899-.243-.304-.137-.668-.167-.926-.364.045-.122.213-.152.304-.213.213.045.38.152.578.228 1.291.395 2.87.258 4.055-.259.152.03.333.076.409.213" fill="#ffc82e"/><path clip-path="url(#a)" d="m21.552 15.75c-.122.106-.289.015-.41 0-.045-.076-.106-.152-.091-.243.137-.106.273.395.228.046-.015-.03-.045-.091 0-.106.121.06.227.181.273.303" fill="#ffc82e"/><path clip-path="url(#a)" d="m6.257 15.628c.061.228-.076.395-.152.577-.152.03-.304-.061-.456-.122-.015-.212.106-.486.319-.607.107.016.244.031.289.152" fill="#ffc82e"/><path clip-path="url(#a)" d="m21.886 15.795c-.061.045-.151.031-.228.015-.016-.091-.076-.197-.061-.289.122.047.289.123.289.274" fill="#ffc82e"/><path clip-path="url(#a)" d="m38.107 15.841c.045.547.531 1.063.197 1.625-.152.152-.35.258-.593.182l-.228-.091c-.137.228-.41.258-.607.364-.092.091.045.197-.046.273-.076.045-.167.106-.259.061-.091-.197-.151-.395-.197-.607l.076-.076c.259-.076.547-.122.729-.334 0-.182-.03-.38-.167-.486-.168.03-.35.061-.472.182-.03.076.062.167-.03.213-.091.045-.182.106-.273.061l-.242-.79c-.016-.167.182-.137.273-.152.061.061.075.212.197.167l1.275-.41c.03-.076-.016-.152.016-.243.093-.091.336-.152.351.061" fill="#6a0032"/><path clip-path="url(#a)" d="m20.428 16.418c.684.41 1.731.334 2.476.092.532-.167.973-.578 1.55-.638.03.137-.137.212-.213.319-.607.486-1.246.881-2.005.987-1.215.197-2.248-.35-2.962-1.276l.03-.061c.395.152.79.304 1.124.577" fill="#ffc82e"/><path clip-path="url(#a)" d="m22.646 16.327c.167-.015.334-.106.501-.061-.44.243-.972.349-1.534.349-.44-.015-.85-.106-1.199-.334v-.046c.712.107 1.473.244 2.232.092" fill="#ffc82e"/><path clip-path="url(#a)" d="m38.016 16.752c.016.122.106.258 0 .365-.076.137-.243.137-.35.076-.167-.137-.213-.38-.197-.577.137-.061.273-.137.426-.122z" fill="#ffc82e"/><path clip-path="url(#a)" d="m5.62 17.193c.122.122 0 .243-.015.365-.167.106-.395-.183-.486.076 0 .076-.061.152.016.212l1.352.319c.182-.016.045-.228.167-.304.106.015.228.015.289.106-.045.319-.137.638-.197.957-.091.091-.213.03-.304 0-.137-.106.091-.228-.046-.349-.425-.106-.866-.183-1.291-.304-.091-.045-.152.061-.167.152-.061.106.031.198.137.198.091.03.243.015.258.137-.03.106 0 .243-.106.319-.228-.091-.562-.03-.698-.258l.395-1.701.046-.046z" fill="#6a0032"/><g fill="#ffc82e"><path clip-path="url(#a)" d="m14.839 17.223.015 1.534.015 7.047.091.061c1.154.137 2.339.167 3.479.35.926.105 1.898.121 2.794.288.167.062.365.091.456.273.137.198.151.456.137.684-.03.015-.061.015-.076-.015-.061-.273-.045-.639-.349-.76-.592-.152-1.23-.243-1.868-.273l-4.724-.471-.061-.076c-.03-.744-.03-1.473-.03-2.218l-.061-5.543-.015-.912c.014-.09.197-.075.197.031"/><path clip-path="url(#a)" d="m28.934 17.223c.015 1.58.045 3.144.045 4.708.016 1.307.061 2.643.031 3.918l-.122.046c-2.035.228-4.056.38-6.091.607-.273.076-.562.273-.652.547-.061.137-.092.273-.092.44-.015.016-.045.03-.076.016-.091-.305 0-.607.243-.82.213-.168.472-.258.745-.273l5.893-.592.076-.122c0-2.445-.137-4.815-.092-7.275l-.03-1.23c.015-.122.136-.03.122.03"/><path clip-path="url(#a)" d="m29.131 17.284c.105 2.156.061 4.45.121 6.638l.016 2.035-.092.09c-1.898.244-3.842.426-5.786.594-.38.06-.82.045-1.048.439-.061.121-.016.304-.106.41-.091-.016-.061-.137-.061-.213.03-.303.288-.547.577-.637l.44-.062 5.832-.593c.075-.015.122-.105.106-.182.016-.987.016-1.959-.031-2.947l-.029-5.164c-.015-.12-.091-.378.061-.408"/><path clip-path="url(#a)" d="m14.535 17.481.061 2.855.03 5.635.061.075c1.671.137 3.296.365 4.982.486.592.061 1.2.106 1.747.273.197.152.243.426.197.684-.015.016-.061.03-.091 0-.03-.182-.03-.395-.137-.547l-.228-.121c-2.005-.258-4.04-.426-6.061-.639l-.562-.061-.076-.105c-.03-1.079-.015-2.172 0-3.25 0-1.808-.03-3.57-.045-5.377.031-.12.152.001.122.092"/><path clip-path="url(#a)" d="m29.419 17.466c-.015 2.46.091 4.936.076 7.412l.046 1.215c-.016.091-.092.122-.152.122-2.111.242-4.252.41-6.349.652-.197.061-.471.107-.517.365-.03.076-.015.197-.091.242-.076 0-.061-.075-.061-.121.046-.137.061-.289.183-.379.182-.122.379-.168.607-.198l6.06-.607c.091 0 .183-.061.183-.137l-.076-3.857c.03-1.595-.061-3.145-.03-4.754-.016-.122.151-.046.121.045"/><path clip-path="url(#a)" d="m14.307 17.709.03 5.848c-.015.865-.015 1.762.015 2.643l.046.045c.486.016.941.092 1.397.152 1.503.092 2.992.289 4.495.426.365.121.942-.076 1.094.379-.015.092.061.213-.03.273-.106-.075-.061-.242-.152-.349l-.136-.091c-1.413-.243-2.932-.273-4.375-.502-.395-.015-.805-.045-1.185-.121-.425 0-.835-.076-1.245-.106l-.046-.076c.016-2.886-.015-5.787 0-8.703.092-.091.107.106.092.182"/><path clip-path="url(#a)" d="m29.662 17.558.076 4.374c.045 1.458.061 2.9.091 4.344-.061.167-.258.106-.395.137-2.142.152-4.283.44-6.409.638-.197.03-.289.273-.38.41-.091-.015-.03-.122-.03-.183.105-.121.242-.288.44-.273l.03-.015 6.516-.684.061-.061-.076-3.903c.031-1.185-.091-2.354-.015-3.539l-.03-1.2c-.016-.076.121-.152.121-.045"/><path clip-path="url(#a)" d="m14.095 17.785c-.016.334.015.684 0 1.018.061 2.506-.03 5.027.03 7.549l.091.061c1.397.152 2.78.258 4.177.41.881.076 1.747.167 2.612.304.076.03.152.106.167.183-.015.029.015.075-.015.091l-.228-.151c-1.169-.213-2.4-.289-3.584-.426-1.109-.152-2.218-.197-3.311-.38l-.045-.076c-.046-2.142.061-4.268-.016-6.424 0-.744 0-1.534.031-2.263.075-.017.091.059.091.104"/><path clip-path="url(#a)" d="m33.353 18.302-.409 1.185c-.183.061-.38.045-.578.076-.318-.228-.607-.501-.881-.774v-.045c.593-.167 1.186-.304 1.777-.501.046-.017.091.013.091.059"/></g><path clip-path="url(#a)" d="m38.806 18.636c.151.243.167.592.045.851.122.076.183.197.167.349l-.075.046-.607.106c-.092-.015-.106-.106-.122-.182-.045-.182.167-.106.229-.243.166-.198.242-.501.091-.745-.062-.106-.167-.167-.289-.152-.364.182-.136.699-.228 1.033-.045.182-.182.395-.364.455-.183.091-.41.031-.563-.045-.304-.212-.38-.562-.364-.911l.076-.334c-.137-.03-.183-.197-.152-.334.213-.091.456-.091.699-.137.091.046.091.183.076.273-.168.046-.319.213-.365.395-.045.243-.061.577.197.729.076.03.183.03.259-.03.243-.258.045-.668.137-.972.03-.197.151-.395.334-.471.318-.152.682.015.819.319" fill="#6a0032"/><path clip-path="url(#a)" d="m33.551 18.484c.334.866.364 1.883.485 2.84.046 3.189-1.002 5.984-2.931 8.368-.639.806-1.428 1.397-2.203 1.989-.045.076-.151.092-.197.031-.425-.607-.789-1.261-1.154-1.898l.031-.076c1.625-1.275 2.977-2.916 3.554-4.754l.318-1.002c.259-1.2.364-2.522.167-3.782l-.212-1.169c0-.015.061-.03.075 0 .38.41.836.699 1.246 1.078.045.015.137.045.167-.03.212-.517.41-1.048.562-1.595.031-.031.076-.031.092 0" fill="#ffc82e"/><path clip-path="url(#a)" d="m9.948 18.666c.289.577.623 1.154.972 1.716.122.091.198-.091.304-.137.365-.365.76-.729 1.14-1.063l.045.03c-.213.911-.395 1.838-.365 2.81.061.79.198 1.534.395 2.248.395 1.579 1.154 2.992 2.339 4.237.456.517.987.987 1.534 1.383l.015.091c-.334.653-.775 1.261-1.139 1.898-.03.061-.106.061-.152.03-1.473-.987-2.916-2.415-3.767-3.949-1.215-2.172-1.898-4.632-1.701-7.335.076-.684.106-1.367.319-1.975z" fill="#ffc82e"/><path clip-path="url(#a)" d="m31.211 19.046c.016.243.183.471.122.714-.304.091-.638.106-.957.167l-.471.076-.061-.061.015-.699c.38-.137.775-.228 1.17-.35.107-.014.167.077.182.153" fill="#ffc82e"/><path clip-path="url(#a)" d="m11.892 19.289c.061.076-.045.121-.076.152-.228.152-.365.44-.638.471l-.38-.091c-.198-.243-.304-.516-.456-.759-.015-.045 0-.076.046-.091.487.12 1.003.212 1.504.318" fill="#ffc82e"/><path clip-path="url(#a)" d="m4.784 19.699 1.747.106c.121.122 0 .304 0 .44-.517.334-1.079.562-1.595.881l.015.045c.35.061.76.061 1.124.076.137-.046-.015-.258.167-.273.106 0 .243-.015.273.106l-.076.774c-.076.091-.212.046-.304.015-.061-.076.016-.228-.121-.228-.456 0-.927-.061-1.367-.061-.106.061 0 .273-.167.258-.091-.015-.212 0-.212-.122l.061-.684c.471-.304.972-.531 1.443-.85-.03-.091-.152-.061-.228-.061l-.775-.045c-.167.03-.03.289-.212.273-.076-.015-.228-.015-.183-.137l.061-.775c.076-.061.182-.045.258 0 .061.095-.046.231.091.262" fill="#6a0032"/><path clip-path="url(#a)" d="m13.791 19.729c.076.228.045.516.061.744l-.061.03-1.382-.334c-.091-.152.03-.334.045-.517.031-.076.031-.183.137-.183z" fill="#ffc82e"/><path clip-path="url(#a)" d="m16.828 20.124c.167.243.365.562.638.653.136-.106.243.045.349.076.774.365 1.747.623 2.643.38.623-.137 1.002-1.048 1.731-.774.395.197.684.653 1.109.79.744.091 1.473-.061 2.111-.319.105-.122-.016-.258.015-.395.046-.349.243-.684.577-.881.304-.213.744-.121 1.033.061.364.258.576.668.455 1.094-.03.38-.395.684-.729.82-.426.076-.881 0-1.14-.395l-.106.015c-.957.759-1.959 1.337-3.113 1.609-.03.031-.03.092.016.122.303.197.607.471.881.729.03.029.015.105-.046.105-.896.076-1.792.046-2.688-.015-.076 0-.151-.016-.182-.091l.031-.076c.349-.229.668-.502 1.002-.729l-.015-.046c-.44-.075-.896-.137-1.291-.318-.926-.41-1.762-1.002-2.688-1.428-.076-.045-.031-.137-.061-.197-.334-.167-.774-.061-1.033-.395-.152-.212-.197-.486-.319-.714-.061-.106-.288-.198-.197-.319.395.076.759.304 1.017.638" fill="#6a0032"/><path clip-path="url(#a)" d="m22.326 19.835c.046.061.061.167.016.243-.121.152-.334.167-.517.122-.122 0-.273-.061-.304-.213-.015-.137.091-.258.213-.304.213-.09.44-.015.592.152" fill="#6a0032"/><path clip-path="url(#a)" d="m32.821 19.744c.015.061-.015.122-.076.122-.061.015-.106-.046-.136-.091-.016-.061.045-.076.09-.091.046 0 .122-.016.122.06" fill="#ffc82e"/><path clip-path="url(#a)" d="m27.096 20.261c.061.183.105.44.03.623-.062.151-.183.288-.319.364-.273.106-.607.061-.82-.152s-.258-.562-.151-.835c.197-.243.485-.425.805-.319.181.03.363.137.455.319" fill="#ffc82e"/><path clip-path="url(#a)" d="m31.439 20.079c.045.289.091.577.061.866l-.092.03-1.473.106-.076-.091v-.79l.076-.076c.502 0 .941-.197 1.428-.167z" fill="#ffc82e"/><path clip-path="url(#a)" d="m11.118 20.063c0 .061-.061.061-.091.061-.045 0-.076-.015-.076-.061.015-.091.152-.076.167 0" fill="#ffc82e"/><path clip-path="url(#a)" d="m33.535 20.428c-.045.167-.273.137-.38.273.046.197-.121.577.183.623.091.061.273.061.258.212.031.045.016.122-.045.122l-1.291-.501c-.092-.076-.076-.183-.092-.273l.046-.076 1.245-.547c.062.015.076.091.076.167" fill="#6a0032"/><path clip-path="url(#a)" d="m13.806 20.656.046.045c-.03.197.091.456-.076.593l-1.473-.046c-.091-.016-.061-.137-.061-.212l.076-.668.076-.03c.455.12.956.181 1.412.318" fill="#ffc82e"/><path clip-path="url(#a)" d="m39.079 20.625c0 .228.075.456 0 .668-.062.045-.183.031-.243 0-.092-.061 0-.243-.152-.258l-1.366.091c-.122.076.015.304-.183.289-.091 0-.228.015-.213-.106l-.015-.835c.075-.076.167-.016.258-.03.091.076 0 .228.137.258l1.382-.076c.137-.061-.015-.304.168-.289.227-.091.227.137.227.288" fill="#6a0032"/><path clip-path="url(#a)" d="m32.897 20.898c0 .076.015.213-.106.183-.076-.03-.183-.03-.228-.122.061-.075.244-.212.334-.061" fill="#ffc82e"/><path clip-path="url(#a)" d="m10.479 20.99c-.076.228-.212.532-.045.76.076.03.167.03.212-.031.167-.228.137-.623.486-.699.137.031.289.091.365.228.045.243.106.592-.091.774-.045.016-.167.046-.182-.045.045-.182.197-.379.061-.577-.045-.061-.137-.061-.197-.015-.198.197-.122.592-.471.653-.197.061-.395-.061-.486-.229-.106-.304.03-.592.122-.85.06-.091.181-.03.226.031" fill="#6a0032"/><path clip-path="url(#a)" d="m31.546 21.658c-.03.137.075.364-.092.41-.501-.061-1.002-.091-1.519-.122-.106-.167-.076-.44-.061-.653l.061-.045c.531 0 1.033-.152 1.564-.122.077.167-.015.365.047.532" fill="#ffc82e"/><path clip-path="url(#a)" d="m13.73 21.43c.045 0 .106.015.122.076l-.016.699-.075.045-1.474.015-.076-.091c0-.228-.03-.517.016-.729l.076-.045c.455.03.956.045 1.427.03" fill="#ffc82e"/><path clip-path="url(#a)" d="m39.154 21.719-.091 1.777-.091.061-.653-.03c-.091-.091-.046-.273-.015-.38.137-.061.455.076.455-.167.016-.091-.016-.212-.137-.212l-1.291-.047c-.182.047 0 .273-.152.319-.105-.015-.288.046-.288-.121.03-.304.03-.638.076-.942.076-.061.183-.015.273 0 .106.076-.046.289.137.319l1.337.061c.121-.031.075-.182.075-.273-.106-.182-.38.045-.44-.167.016-.106-.045-.258.046-.318l.714.045z" fill="#6a0032"/><path clip-path="url(#a)" d="m33.565 22.175c.061.076.03.167.016.243l-.106.03-1.246-.076c-.045-.076-.03-.197.031-.258l.061-.03z" fill="#6a0032"/><path clip-path="url(#a)" d="m6.485 22.205c.045.563.061 1.139.137 1.686-.061.121-.213.045-.319.061-.076-.061 0-.228-.137-.228l-1.366.09c-.122.092.075.319-.137.304-.076 0-.198.03-.229-.075-.015-.578-.106-1.124-.091-1.717.182-.061.395-.061.592-.076.061.091.076.243.045.365-.076.091-.258-.016-.318.121l.045.607c.137.121.319.016.486.016l.045-.061c0-.168-.076-.35 0-.502.076-.045.182-.061.273-.029.045.166.03.349.061.531l.091.045.532-.061.045-.076-.074-.606c-.091-.197-.379.092-.41-.167 0-.122-.031-.349.167-.304.167 0 .349-.015.517-.015z" fill="#6a0032"/><path clip-path="url(#a)" d="m31.516 22.312-.076.819-.061.046-1.443-.273c-.106-.212-.076-.531-.03-.774l.046-.015 1.519.106z" fill="#ffc82e"/><path clip-path="url(#a)" d="m11.497 22.706c.076.076.046.183.03.259-.395.242-.82.41-1.215.638-.091-.016-.091-.122-.091-.198.076-.182.319-.091.395-.273-.03-.197.046-.455-.137-.562-.106-.061-.273-.045-.349-.167 0-.061 0-.152.061-.182.425.166.881.303 1.306.485" fill="#6a0032"/><path clip-path="url(#a)" d="m13.852 22.448c-.076.289.212.82-.258.82-.38.061-.744.152-1.109.244-.151-.107-.121-.35-.182-.518-.03-.166-.045-.364-.03-.516l.091-.046c.456-.015.926-.015 1.367-.076.06.016.105.046.121.092" fill="#ffc82e"/><path clip-path="url(#a)" d="m11.133 22.857c0 .076-.091.092-.152.107-.076.015-.076-.076-.091-.122.03-.151.197-.045.243.015" fill="#ffc82e"/><path clip-path="url(#a)" d="m32.411 23.01c.015.152-.151.395.076.456l.927.167c.045.091.015.197-.016.273l-.091.03-.957-.198c-.213.092-.03.594-.396.396l-.029-.091.242-1.109c.077-.045.214-.015.244.076" fill="#6a0032"/><path clip-path="url(#a)" d="m31.394 23.359c-.046.288-.106.547-.183.82-.105.105-.228 0-.334-.016-.288-.167-.622-.182-.896-.318l-.076-.092.015-.652.062-.046 1.366.243z" fill="#ffc82e"/><path clip-path="url(#a)" d="m13.852 23.45-.03.866c-.319.182-.684.258-1.018.395l-.061-.03c-.137-.289-.197-.638-.258-.972l.076-.076c.395-.076.79-.152 1.169-.273.045-.001.106.03.122.09" fill="#ffc82e"/><path clip-path="url(#a)" d="m11.74 23.906c0 .228.197.501-.015.684-.122.182-.349.197-.532.137-.273-.107-.243-.41-.379-.623-.182-.106-.441.182-.532-.076-.015-.106.03-.213.137-.213.41-.045.82-.121 1.23-.137z" fill="#6a0032"/><path clip-path="url(#a)" d="m39.003 24.027c-.106.289-.076.623-.213.896-.151.015-.288-.046-.318-.197-.167.045-.335.121-.486.242 0 .197.228.319.334.471.183.046.046-.242.243-.182.061.016.152.03.182.092l-.166.835c-.062.06-.168.015-.243 0-.092-.062-.03-.183-.092-.274-.288-.258-.455-.668-.805-.835-.183.016-.41-.182-.517.03-.016.092.016.213-.091.244-.106-.016-.259 0-.273-.122l.212-1.033c.062-.061.183-.03.259 0 .137.122-.122.364.122.41.258.03.547.152.744-.075l.698-.381c.091-.061.046-.197.151-.227.092.001.213.016.259.106" fill="#6a0032"/><path clip-path="url(#a)" d="m11.558 24.164c.015.122-.015.289-.167.304-.106.016-.182-.091-.213-.182-.03-.076-.061-.167-.015-.243.122-.061.41-.122.395.121" fill="#ffc82e"/><path clip-path="url(#a)" d="m31.12 24.483-.228.683c-.137.107-.289-.045-.426-.091-.182-.121-.425-.167-.531-.349.03-.259-.091-.517.061-.715l1.109.35z" fill="#ffc82e"/><path clip-path="url(#a)" d="m6.85 24.832c.122.335.122.775-.076 1.063-.228.35-.592.501-.987.501-.425 0-.82-.228-1.033-.622-.091-.229-.122-.548-.03-.79 0-.061-.061-.061-.106-.092-.03-.075-.122-.258.015-.303l.714-.152c.091.046.106.152.106.258-.031.106-.152.061-.213.122-.167.137-.228.304-.243.485-.016.183.076.335.197.456.167.151.395.198.638.183.304-.061.623-.243.714-.547.046-.228-.015-.456-.167-.623-.076-.167-.289-.137-.364-.273.03-.105.061-.228.167-.273.288.076.562.319.668.607" fill="#6a0032"/><path clip-path="url(#a)" d="m13.852 24.727c-.076.228.122.592-.167.698l-.532.304c-.167-.092-.167-.334-.243-.501-.015-.122-.182-.319.031-.38l.79-.35c.121 0 .09.152.121.229" fill="#ffc82e"/><path clip-path="url(#a)" d="m33.034 25.091c.076.061.046.151.03.228l-.076.061-1.215-.425c-.106-.046-.046-.167-.016-.228l.062-.046z" fill="#6a0032"/><path clip-path="url(#a)" d="m12.029 25.075c.03.106-.091.137-.167.167l-1.094.273c-.091 0-.106-.121-.122-.197-.03-.091.076-.121.152-.137l1.093-.258c.092.001.108.092.138.152" fill="#6a0032"/><path clip-path="url(#a)" d="m30.756 25.349c.076.122-.03.259-.091.364-.092.168-.152.35-.273.486-.183-.045-.304-.228-.44-.334.015-.273-.076-.563 0-.836l.045-.045z" fill="#ffc82e"/><path clip-path="url(#a)" d="m31.728 25.622c.016.137-.167.198-.182.319-.062.121-.062.318 0 .44.121.151.288.273.485.243.35-.046.426-.426.502-.684.045-.046.137-.046.182-.016.061.243-.061.471-.167.668-.137.183-.334.319-.562.334-.213-.015-.41-.061-.547-.258-.167-.213-.289-.531-.137-.805.077-.119.244-.575.426-.241" fill="#6a0032"/><path clip-path="url(#a)" d="m13.852 25.683c-.091.319.152.806-.213.957l-.091-.015c-.137-.243-.334-.471-.319-.76l.532-.334c.106 0 .06.107.091.152" fill="#ffc82e"/><path clip-path="url(#a)" d="m12.454 26.306c.016.046-.045.076-.091.091-.228.016-.167-.273-.304-.395-.061-.061-.136 0-.197.016-.167.137.197.379-.106.471-.258.076-.167-.563-.44-.229-.031.213.304.44.03.578-.122.045-.167-.107-.198-.168-.045-.213-.212-.395-.167-.623.349-.166.729-.258 1.093-.409l.106.015z" fill="#6a0032"/><path clip-path="url(#a)" d="m30.3 26.442c-.121.213-.212.471-.425.638-.197-.121-.395-.288-.577-.455.015-.122.183-.092.288-.106.122-.03.319.03.365-.122.015-.091-.031-.228.045-.273.122.075.304.151.304.318" fill="#ffc82e"/><path clip-path="url(#a)" d="m15.036 26.716c-.273.258-.592.485-.881.714l-.106-.03-.349-.547c0-.167.182-.228.289-.273.348.06.713.045 1.047.136" fill="#ffc82e"/><path clip-path="url(#a)" d="m29.769 27.217-.015.092-.486.607c-.152.061-.259-.122-.365-.213l-.972-.941c-.03-.076.061-.092.122-.092.349 0 .684-.091 1.018-.045z" fill="#ffc82e"/><path clip-path="url(#a)" d="m12.682 26.838c-.076.258-.212.5-.304.759.045.061.122.015.167 0 .137-.106.289-.213.44-.273.045.076.152.137.091.228l-.987.623c-.091.03-.152-.061-.183-.137.061-.334.304-.592.38-.911l-.046-.03c-.243.076-.455.228-.698.304-.061-.046-.091-.137-.061-.213l1.063-.547c.107-.001.107.121.138.197" fill="#6a0032"/><path clip-path="url(#a)" d="m27.703 26.762c.44.471.927.835 1.382 1.275.03.045 0 .106-.046.152l-.455.439h-.092c-.471-.607-1.078-1.154-1.564-1.762-.029-.075.062-.091.107-.091.212-.013.471-.089.668-.013" fill="#ffc82e"/><path clip-path="url(#a)" d="m16.221 26.822c.046.061-.015.121-.061.167-.486.395-.851.851-1.307 1.275h-.075l-.501-.592v-.138l1.033-.805z" fill="#ffc82e"/><path clip-path="url(#a)" d="m28.417 28.751-.016.076-.501.409-.091-.045c-.562-.744-1.2-1.473-1.762-2.232-.03-.092.075-.092.137-.106.197.015.409-.091.562.015z" fill="#ffc82e"/><path clip-path="url(#a)" d="m17.238 26.943c.076.076-.03.137-.076.197-.546.593-1.124 1.186-1.655 1.777-.212-.016-.334-.304-.516-.426-.046-.061-.015-.151.045-.212.501-.41.957-.942 1.413-1.397l.061-.03z" fill="#ffc82e"/><path clip-path="url(#a)" d="m26.123 27.263c.502.698 1.078 1.366 1.61 2.05-.046.229-.471.289-.38.547.092.168.258.304.228.502-.061.061-.151.121-.228.091-.82-1.108-1.428-2.278-2.142-3.417.076-.152.319-.092.486-.137.229-.016.289.242.426.364" fill="#ffc82e"/><path clip-path="url(#a)" d="m31.895 27.627c.046.076-.03.152-.045.213-.046.076-.137.045-.183.016-.334-.229-.684-.41-.987-.684 0-.107.046-.183.121-.244l.107.031z" fill="#6a0032"/><path clip-path="url(#a)" d="m18.059 27.05v.076c-.562.805-1.185 1.579-1.747 2.384-.076.076-.167 0-.228-.045-.152-.121-.349-.258-.471-.41l.03-.106c.638-.653 1.261-1.352 1.898-1.989.168.044.396-.017.518.09" fill="#ffc82e"/><path clip-path="url(#a)" d="m25.318 27.49c.577.851 1.002 1.793 1.625 2.627l.273.457c-.213.227-.517.349-.774.516h-.122c-.562-1.336-1.229-2.627-1.822-3.949 0-.182.243-.105.35-.151.303-.031.318.333.47.5" fill="#ffc82e"/><path clip-path="url(#a)" d="m18.742 27.126-.03.106c-.638 1.185-1.276 2.354-1.898 3.539-.198.075-.365-.122-.547-.183l-.03-.076.319-.607c.061-.151-.167-.151-.152-.273.258-.471.683-.881.957-1.337.319-.41.577-.881.957-1.245.136.03.333-.03.424.076" fill="#ffc82e"/><path clip-path="url(#a)" d="m24.468 27.354c.531 1.275 1.154 2.491 1.701 3.752.03.091-.061.151-.122.166l-.607.213-.061-.075-.471-1.2c-.03-.046-.091-.137-.152-.076l-.015.076c.137.44.35.865.501 1.307-.213.213-.562.182-.82.303-.091.016-.212 0-.228-.105-.061-.426-.167-.82-.304-1.215-.015-.046-.061-.076-.106-.046l-.015.091.288 1.291c-.046.121-.182.121-.273.137-.182.031-.364.121-.547.092-.167-.289-.075-.684-.182-1.003-.046-.151-.03-.349-.152-.456-.091.061-.061.259-.03.365l.152 1.094c-.046.137-.243.061-.365.105l-.638.016-.061-.061c.015-.471.046-.941-.015-1.397-.016-.03-.062-.046-.092-.015-.121.471.03.971-.061 1.457-.273.031-.607-.015-.881-.061l-.046-.061c.091-.456.091-.941.152-1.397-.015-.046-.091-.061-.122-.015-.091.471-.091.986-.212 1.428-.258.045-.531-.061-.79-.107l-.016-.137.304-1.229c-.015-.062-.015-.137-.076-.137l-.091.106-.289 1.306-.061.046c-.273-.046-.577-.046-.774-.229.152-.455.319-.896.395-1.366 0-.03-.031-.046-.061-.046-.212.426-.289.896-.456 1.337-.076.106-.228.046-.304 0-.183-.122-.44-.122-.577-.288.577-1.353 1.078-2.75 1.625-4.102.152-.076.334.016.501.016l.03.076-.228.865c.015.03.015.061.045.061l.061-.03.273-.927c.137-.076.273.046.41.046.091.167-.076.334-.061.517-.03.137-.091.304-.045.44.061.015.076-.046.091-.091.061-.259.091-.547.198-.805.03-.062.106-.047.152-.016.045.167.258.197.289.364-.015.183-.061.38-.045.577.015.016.076.03.091-.016l.091-.622c.137-.016.273-.062.41-.016.106.213-.015.532.137.729.061 0 .076-.092.061-.152.031-.197-.091-.379 0-.577.122-.03.305-.03.426.016.121.197.045.485.197.683.046 0 .076-.061.076-.091l-.091-.607c.061-.091.243-.03.243-.183 0-.09.029-.166.091-.242.061-.031.106.061.106.091l.212.82c.03.046.092.106.137.046.046-.35-.197-.653-.182-.988.106-.091.243-.061.38-.075l.091.106.304.805c.016.016.061.061.091.016l.016-.106c-.091-.259-.213-.532-.243-.806.121-.075.304-.075.471-.075z" fill="#ffc82e"/><path clip-path="url(#a)" d="m19.365 27.217c-.212.729-.592 1.383-.835 2.096-.243.653-.517 1.291-.759 1.93l-.076.03-.744-.35c-.076-.106.031-.198.061-.288.334-.486.531-1.033.851-1.535l1.063-1.959c.12-.045.378-.061.439.076" fill="#ffc82e"/><path clip-path="url(#a)" d="m31.439 28.447c.045.092-.046.167-.121.213-.183-.061-.319-.289-.518-.334l-.015.045c.076.197.151.38.259.547-.107.501-.517-.016-.791.076.031.197.274.304.381.455-.016.076-.076.168-.137.198-.35-.259-.668-.608-.973-.911-.016-.107.092-.168.152-.229.288.092.562.167.851.229.03.015.075-.046.061-.092l-.364-.76c-.016-.105.091-.166.151-.242l.106.03z" fill="#6a0032"/><path clip-path="url(#a)" d="m14.079 28.629c0 .092-.091.137-.151.168-.167-.031-.213-.334-.395-.243-.243.228-.517.364-.729.622-.106.016-.137-.105-.183-.166l.016-.092.759-.607c.03-.167-.38-.365-.045-.486l.075.016z" fill="#6a0032"/><path clip-path="url(#a)" d="m24.164 28.629c.183.289-.03.578-.197.806.076.183.289 0 .425.015.106.016.106.137.122.229.015.105-.092.121-.167.137-.243.045-.501.061-.729.151-.121-.015-.105-.183-.091-.272-.076-.365.456-.518.319-.852-.168-.121-.396.213-.502-.105-.03-.183.197-.213.305-.273.197-.048.394-.002.515.164" fill="#6a0032"/><path clip-path="url(#a)" d="m20.23 28.645c-.061.44-.273.836-.364 1.275-.091.062-.183-.029-.273-.045-.137-.106 0-.229.015-.35l.304-.941c.091-.106.242-.016.318.061" fill="#6a0032"/><path clip-path="url(#a)" d="m22.994 28.857c.198.425-.105.82-.303 1.154-.106.091-.213.304-.35.167-.258-.243.258-.334.213-.577-.183-.061-.441-.121-.486-.364-.03-.183.016-.364.137-.501.228-.198.608-.136.789.121" fill="#6a0032"/><path clip-path="url(#a)" d="m21.598 28.873c.045.166.015.363-.046.5.106.152.183.365.091.532-.091.137-.212.304-.395.319-.243.015-.425-.061-.592-.213-.122-.229-.03-.517.122-.699-.046-.213 0-.41.137-.576.091-.076.197-.107.319-.107.136.016.287.107.364.244" fill="#6a0032"/><path clip-path="url(#a)" d="m21.339 29.085c0 .062-.045.122-.106.152-.091.03-.152-.046-.182-.106-.016-.092.045-.152.106-.183.091-.03.167.062.182.137" fill="#ffc82e"/><path clip-path="url(#a)" d="m14.489 29.131-.045.076c-.304.273-.592.592-.911.82-.091-.016-.182-.062-.198-.152l.03-.092c.319-.258.593-.607.912-.835.091.016.152.122.212.183" fill="#6a0032"/><path clip-path="url(#a)" d="m22.706 29.1c0 .062-.046.122-.091.122-.092.03-.183-.046-.183-.122 0-.061.03-.105.091-.121.077 0 .168.045.183.121" fill="#ffc82e"/><path clip-path="url(#a)" d="m30.148 30.012c-.016.076-.076.152-.137.167-.197.015-.319-.213-.517-.106-.106.121-.273.182-.304.334 0 .183.197.395 0 .547-.03.03-.076.03-.106 0-.167-.455-.259-.926-.364-1.397.016-.061.046-.136.121-.151.457.165.882.393 1.307.606" fill="#6a0032"/><path clip-path="url(#a)" d="m21.324 29.662c.015.092-.046.168-.137.168-.076-.016-.183-.016-.213-.107 0-.091.046-.166.122-.197.107-.015.213.031.228.136" fill="#ffc82e"/><path clip-path="url(#a)" d="m15.294 29.859c-.091.471-.304.896-.456 1.337-.091.015-.167-.091-.213-.151 0-.168.152-.305.061-.456-.106-.106-.213-.198-.334-.243-.137.016-.212.137-.349.167-.076-.046-.167-.106-.213-.183l.106-.091 1.139-.562c.123-.031.214.106.259.182" fill="#6a0032"/><path clip-path="url(#a)" d="m29.252 29.905c0 .061-.061.091-.106.106-.061.016-.075-.046-.091-.076.016-.045-.03-.106.03-.121.061-.015.122.031.167.091" fill="#ffc82e"/><path clip-path="url(#a)" d="m14.945 30.103c-.016.076-.016.167-.092.198-.061-.016-.121-.062-.151-.122.03-.091.182-.167.243-.076" fill="#ffc82e"/><path clip-path="url(#a)" d="m28.66 31.955.061.016c.288-.045.577-.106.851-.121v.061c-1.442 1.063-3.022 1.807-4.739 2.202-1.67.562-3.781.532-5.528.137-1.2-.243-2.293-.684-3.387-1.2-.501-.288-1.018-.547-1.488-.896v-.016c.243-.015.471.076.714.062l.121-.092.805-1.321c.061-.076.167-.015.228.03.319.167.638.35.972.502 1.762.729 3.736 1.215 5.832.956 1.321-.183 2.537-.622 3.706-1.169l.881-.593.076.015z" fill="#ffc82e"/><path clip-path="url(#a)" d="m29.936 31.484c.046.106-.091.122-.152.152-.197.016-.379.076-.562.076v-.061l.486-.365c.137-.029.167.122.228.198" fill="#ffc82e"/><path clip-path="url(#a)" d="m14.809 31.971c-.183.031-.41-.03-.608-.061-.106-.092.045-.152.061-.243.045-.03.121-.03.151.016z" fill="#ffc82e"/><path clip-path="url(#a)" d="m18.241 33.049c.03.076.106.046.152 0l.593-.623c.091-.045.197 0 .288.031.031.03.031.091 0 .121-.364.318-.638.684-1.002.987-.106 0-.273.016-.289-.137-.061-.456-.121-.911-.167-1.352.091-.091.183.015.273.046l.061.121z" fill="#6a0032"/><path clip-path="url(#a)" d="m26.018 32.153c-.016.091-.016.212-.122.228-.106 0-.243-.045-.334.03-.046.03-.076.091-.03.137.243.122.638.106.698.456-.015.182-.091.379-.288.44-.213.015-.517.121-.699-.062.031-.091-.015-.242.106-.258.167 0 .44.121.563-.061-.106-.304-.532-.061-.699-.289-.091-.137-.061-.35.016-.486.167-.227.485-.272.744-.197z" fill="#6a0032"/><path clip-path="url(#a)" d="m33.171 32.836c.03.137-.151.213-.228.273-.168-.029-.229-.303-.41-.242-.076.076-.213.167-.122.273l.881.957c.046.029.106.061.167.015.061-.061.137-.167.229-.061.045.061.151.121.091.197-.228.212-.471.44-.714.638-.092-.015-.167-.121-.213-.197 0-.121.243-.167.152-.304l-.912-1.003c-.105-.061-.182.062-.273.137-.061.198.381.305.138.502-.062.061-.122.167-.213.105l-.44-.546.03-.062c.44-.395.881-.82 1.321-1.215.197.124.333.351.516.533" fill="#6a0032"/><path clip-path="url(#a)" d="m24.544 32.715c.03.365.213.851-.151 1.109-.229.091-.578.242-.79.015-.243-.288-.198-.698-.289-1.048.03-.106.167-.106.273-.106l.061.061c.076.319-.03.774.319.911.137.031.243-.075.319-.197.106-.288-.076-.547-.062-.85.016-.062.092-.107.152-.122.138-.031.138.136.168.227" fill="#6a0032"/><path clip-path="url(#a)" d="m19.927 32.715c-.076.395-.197.76-.304 1.139-.061.062-.152.047-.213.016-.091-.137 0-.273.016-.41l.212-.865c.091-.062.304-.032.289.12" fill="#6a0032"/><path clip-path="url(#a)" d="m21.415 33.141c.046.197-.106.318-.197.471-.015.167.121.304.106.455-.061.061-.197.031-.273 0-.137-.137-.061-.395-.273-.455-.122.016-.304-.061-.334.121-.046.092.015.258-.122.273-.198.046-.167-.167-.137-.273l.182-1.002c.182-.031.38 0 .562.03.213-.016.456.167.486.38" fill="#6a0032"/><path clip-path="url(#a)" d="m22.979 32.867c0 .091.015.197-.091.213-.121.029-.319-.046-.365.121l.031.865c-.062.076-.198.061-.273.046-.046-.304-.046-.638-.076-.941-.137-.122-.593.091-.486-.259 0-.045.03-.105.076-.105.38-.016.76-.016 1.124-.031z" fill="#6a0032"/><path clip-path="url(#a)" d="m11.482 32.958c.182.273.82.364.546.774l-.258.836c.016.061.106.045.137.015l.881-.593c.258.152.486.365.729.532 0 .106-.091.213-.183.258-.076-.03-.167-.151-.258-.045-.259.349-.532.714-.805 1.063-.015.137.243.182.106.318-.061.121-.197.152-.288.061-.167-.182-.425-.273-.563-.486.016-.075.092-.166.183-.212.091.046.228.151.304 0l.653-.882c0-.029 0-.061-.031-.061l-1.26.791c-.076 0-.167-.062-.183-.137.106-.486.319-.957.395-1.443l-.015-.016c-.304.289-.486.653-.744.973-.03.105.091.137.122.213-.015.091-.076.197-.167.227-.243-.105-.425-.318-.653-.455-.045-.106.091-.152.137-.243.091-.03.167.106.273.046l.82-1.109c.03-.105-.121-.136-.137-.212.016-.107.123-.335.259-.213" fill="#6a0032"/><path clip-path="url(#a)" d="m21.157 33.217c0 .075-.091.121-.152.151-.152.015-.379.062-.456-.091.015-.106 0-.243.106-.289.183.031.441.016.502.229" fill="#ffc82e"/><path clip-path="url(#a)" d="m31.318 33.869c.045.121-.138.137-.152.243.289.501.638 1.003.926 1.503-.045.137-.197.152-.288.229l-.167-.03-1.458-.698c-.046 0-.091 0-.091.045l.577.911c.121.243.334-.183.409.122.031.045.046.137-.029.152l-.593.409c-.137.03-.137-.121-.198-.183-.015-.121.152-.105.152-.227l-.774-1.201c-.122-.045-.167.137-.273.062-.046-.076-.183-.183-.091-.273l.531-.335c.547.168 1.048.457 1.595.654.015.015.062 0 .062-.046-.183-.273-.381-.562-.563-.835-.137-.107-.334.197-.41-.092-.03-.045-.016-.121.016-.167.242-.122.439-.334.698-.395z" fill="#6a0032"/><path clip-path="url(#a)" d="m15.233 35.418c.076.062.061.168 0 .229l-.243.501c-.106.046-.198-.061-.304-.106-.121-.182.304-.364.016-.516-.061-.016-.137-.092-.198-.031-.258.395-.41.82-.638 1.23-.03.076.061.137.122.152.045.015.091.03.091.076-.061.09-.045.334-.228.227l-.775-.395c-.061-.091.031-.182.076-.273.106-.091.213.107.334.046l.622-1.229c.016-.137-.136-.152-.212-.198-.197.03-.152.304-.319.35-.106-.046-.212-.062-.273-.151.061-.244.228-.426.319-.654.061-.061.136 0 .197.016z" fill="#6a0032"/><path clip-path="url(#a)" d="m28.705 35.525c.016.121-.167.105-.121.227l1.002 1.003c.106.167.319-.091.365.152.015.075.045.183-.061.197l-.729.334c-.106-.03-.122-.167-.152-.259.03-.121.335-.105.167-.272l-.151-.122c-.259.106-.547.168-.76.365 0 .091-.015.228.106.242l.197-.015c.046.075.122.167.076.258l-.744.335c-.106-.015-.121-.136-.152-.212 0-.137.197-.107.168-.259l-.061-1.458c-.092-.076-.152.061-.229-.016-.046-.075-.121-.182-.061-.288l.941-.425c.139-.015.139.137.199.213" fill="#6a0032"/><path clip-path="url(#a)" d="m28.736 36.481c-.076.106-.243.152-.381.198-.045.015-.091-.031-.091-.062.03-.197-.076-.41.016-.593.183.109.334.306.456.457" fill="#ffc82e"/><path clip-path="url(#a)" d="m26.853 36.254c.015.197.137.38.137.577-.076.061-.167.091-.243.061-.091-.167-.288-.288-.471-.319-.229.016-.486.046-.577.289-.03.121.046.228.151.289.502.03 1.216-.273 1.443.334.076.167.045.395-.046.547-.212.303-.547.425-.911.44-.121-.016-.318-.138-.364.075-.076.031-.259.137-.273-.03l-.167-.622c.045-.092.167-.092.258-.106.061.212.289.304.486.318.213.03.395-.015.562-.136.092-.076.152-.244.062-.35-.168-.167-.426-.092-.607-.062-.244.046-.486.03-.684-.075-.168-.092-.259-.259-.305-.426-.015-.212.062-.395.183-.547.273-.242.653-.349 1.003-.242.029-.076.105-.152.197-.168.105-.029.15.077.166.153" fill="#6a0032"/><path clip-path="url(#a)" d="m18.454 36.604c.137.167.212.334.197.562-.03.198-.152.41-.349.501-.334.183-.684-.045-1.018-.091-.106.137-.167.35-.106.501.061.076.243.03.197.183-.015.075 0 .212-.121.212-.289-.091-.607-.151-.881-.273 0-.121.015-.227.122-.288.076 0 .167.091.243-.015l.364-1.337c-.03-.151-.349-.106-.197-.334.046-.213.243-.03.364-.03.395.15.835.165 1.185.409" fill="#6a0032"/><path clip-path="url(#a)" d="m18.271 36.968c.031.121-.015.243-.091.319-.243.182-.517-.016-.759-.046-.106-.183.061-.35.076-.532l.091-.061c.227.092.546.061.683.32" fill="#ffc82e"/><path clip-path="url(#a)" d="m19.835 36.755c.076.076.076.183.045.273-.015.046-.076.091-.137.091-.061-.015-.151-.045-.197.016-.091.243-.076.516-.121.775-.046.197-.076.424-.046.637.182.076.395.076.593.106.136-.091.015-.334.182-.364.106.016.35-.03.304.152l-.091.547-.045.045-1.671-.197c-.076-.092-.03-.213 0-.318.076-.092.273.075.289-.092l.152-1.307c-.031-.121-.182-.076-.228-.182 0-.106-.015-.243.091-.289z" fill="#6a0032"/><path clip-path="url(#a)" d="m24.468 36.771c.03.121 0 .258-.137.288v.106l.653 1.185c.061.167.35 0 .304.243l-.015.152c-.289.06-.608.075-.896.136-.092-.061-.076-.182-.092-.272.062-.122.229-.046.273-.167-.105-.441-.592-.092-.881-.137-.075.075-.121.166-.105.258.061.121.273-.016.273.152.121.364-.35.197-.517.288-.122 0-.243.076-.35 0-.046-.076-.046-.167-.03-.258.061-.062.197-.03.213-.152.121-.471.273-.941.35-1.413-.062-.075-.213 0-.213-.137 0-.075-.062-.212.061-.242.364-.03.698-.121 1.063-.121z" fill="#6a0032"/><path clip-path="url(#a)" d="m22.523 36.907c.092.197.016.44.031.653-.107.045-.213.015-.319.015-.106-.091.03-.273-.122-.334h-.622c-.091.122-.061.319-.031.456.167.105.411-.016.562.105-.03.106.062.243-.061.289-.183.061-.501-.106-.532.137.061.167-.076.395.076.516l.683-.015c.106-.106-.076-.425.183-.38.091 0 .273-.045.243.121l-.014.563c-.288.092-.638 0-.926.045l-.881-.015c-.045-.075-.045-.212-.015-.288.076-.076.243 0 .273-.137l-.046-1.352c-.076-.122-.258.045-.258-.137 0-.092-.046-.213.076-.259.562.017 1.124-.029 1.7.017" fill="#6a0032"/><path clip-path="url(#a)" d="m15.082 37.348c-.03.106-.076.228-.167.303-.106-.045-.273-.061-.319-.182.045-.106.03-.258.167-.304.121.015.243.091.319.183" fill="#6a0032"/><path clip-path="url(#a)" d="m23.997 37.348c.076.167.197.318.213.501-.106.076-.289.062-.41.046-.046-.197.075-.365.091-.563.03-.061.076-.03.106.016" fill="#ffc82e"/></svg>