<svg width="659" height="157" viewBox="0 0 659 157" fill="none" xmlns="http://www.w3.org/2000/svg">
<path fill-rule="evenodd" clip-rule="evenodd" d="M31.5324 68.7238L29.8552 70.0664V93.3933C30.5261 102.905 32.6492 107.66 36.2288 107.66H45.286V112.862H4.5286V107.66H10.9022C13.9212 107.66 15.4308 107.046 15.4308 105.814V43.214C15.4308 26.4312 15.0661 16.0551 14.34 12.0814C13.6128 8.11202 11.796 6.12407 8.88947 6.12407H0V0.921417H40.7574V6.12407H34.3838C32.2585 6.12407 30.9459 6.26591 30.4428 6.5431C29.9385 6.82353 29.6875 7.29887 29.6875 7.97018C29.6875 8.08278 29.7427 8.25061 29.8552 8.47366C29.8552 8.69887 29.8552 8.92192 29.8552 9.14497V62.1785C37.01 56.3619 43.1607 50.934 48.305 45.8992L61.3876 32.8087C64.5171 29.6773 67.7039 26.3208 70.948 22.739L75.812 17.3685C80.5084 12.2233 82.8565 8.8667 82.8565 7.29886C82.8565 6.51711 82.3534 6.12407 81.347 6.12407H67.4258V0.921417H104.158V6.12407H101.159C100.272 6.12407 99.3272 6.12407 98.3295 6.12407L96.6631 6.29406C95.8872 6.40992 94.8884 7.08881 93.6667 8.33398L91.1671 10.886L86.5043 15.9869L51.7851 50.724L53.6257 52.9003C57.4196 57.3689 64.3937 65.8523 74.5471 78.356L81.9075 87.7327L87.765 94.933C92.4505 100.74 95.7141 104.311 97.5558 105.651C99.3954 106.991 101.88 107.66 105.005 107.66H108.015V112.862H89.3978C86.1537 112.862 84.3087 112.752 83.8629 112.527C82.8565 112.304 80.899 110.29 77.9925 106.485L74.8057 102.289L66.084 90.3735C62.6169 85.6733 57.5851 79.0738 50.9886 70.5699C47.9696 66.6546 44.9505 63.1302 41.9314 59.9967C39.8062 61.9002 36.3391 64.8085 31.5324 68.7238Z" fill="#003A7E"/>
<path fill-rule="evenodd" clip-rule="evenodd" d="M131.989 68.2203C141.448 66.2063 152.577 63.1854 165.378 59.1576C160.702 46.9636 154.638 40.8644 147.182 40.8644C142.283 40.8644 138.167 43.4662 134.828 48.6678C131.489 53.8705 129.761 60.5576 129.652 68.7238L131.989 68.2203ZM157.74 107.324C165.43 107.324 172.786 104.416 179.81 98.5971L182.318 101.785C178.628 105.368 175.161 108.053 171.919 109.842C165.097 113.643 157.604 115.548 149.444 115.548C139.155 115.548 130.935 112.081 124.788 105.142C118.637 98.2062 115.563 88.9215 115.563 77.2819C115.563 65.0889 118.833 55.0193 125.374 47.074C131.916 39.1309 140.219 35.1582 150.282 35.1582C162.917 35.1582 173.148 43.3266 180.976 59.6611C173.62 62.2359 164.926 64.8085 154.897 67.3811L129.652 73.5908C130.988 96.0797 140.352 107.324 157.74 107.324Z" fill="#003A7E"/>
<path fill-rule="evenodd" clip-rule="evenodd" d="M209.352 21.732L210.851 20.0538H213.513V37.8435H232.299L231.964 40.3609C231.85 41.3679 231.57 41.9839 231.125 42.207C230.676 42.4322 229.448 42.5427 227.435 42.5427H213.513V90.877C213.513 97.4797 214.362 101.982 216.063 104.388C217.762 106.794 220.822 107.995 225.241 107.995C228.639 107.995 232.493 107.101 236.801 105.31L238.84 109.17C231.269 113.309 223.81 115.38 216.462 115.38C205.439 115.38 199.983 108.725 200.096 95.4083V42.5427H195.064C192.49 42.5427 191.206 41.984 191.206 40.8644C191.206 40.5287 191.426 40.0826 191.872 39.5218L193.038 38.5148C196.922 35.1582 202.36 29.5647 209.352 21.732Z" fill="#003A7E"/>
<path fill-rule="evenodd" clip-rule="evenodd" d="M261.347 21.732L262.846 20.0538H265.508V37.8435H284.294L283.959 40.3609C283.845 41.3679 283.565 41.9839 283.12 42.207C282.671 42.4322 281.442 42.5427 279.429 42.5427H265.508V90.877C265.508 97.4797 266.357 101.982 268.058 104.388C269.757 106.794 272.817 107.995 277.236 107.995C280.634 107.995 284.488 107.101 288.796 105.31L290.835 109.17C283.263 113.309 275.805 115.38 268.456 115.38C257.434 115.38 251.977 108.725 252.09 95.4083V42.5427H247.058C244.485 42.5427 243.201 41.984 243.201 40.8644C243.201 40.5287 243.421 40.0826 243.867 39.5218L245.032 38.5148C248.917 35.1582 254.355 29.5647 261.347 21.732Z" fill="#003A7E"/>
<path fill-rule="evenodd" clip-rule="evenodd" d="M313.132 68.2203C322.59 66.2063 333.72 63.1854 346.519 59.1576C341.845 46.9636 335.779 40.8644 328.324 40.8644C323.426 40.8644 319.309 43.4662 315.97 48.6678C312.631 53.8705 310.904 60.5576 310.794 68.7238L313.132 68.2203ZM338.883 107.324C346.571 107.324 353.928 104.416 360.951 98.5971L363.46 101.785C359.771 105.368 356.304 108.053 353.061 109.842C346.239 113.643 338.747 115.548 330.585 115.548C320.297 115.548 312.078 112.081 305.93 105.142C299.779 98.2062 296.705 88.9215 296.705 77.2819C296.705 65.0889 299.976 55.0193 306.517 47.074C313.059 39.1309 321.36 35.1582 331.424 35.1582C344.059 35.1582 354.29 43.3266 362.119 59.6611C354.762 62.2359 346.068 64.8085 336.039 67.3811L310.794 73.5908C312.13 96.0797 321.495 107.324 338.883 107.324Z" fill="#003A7E"/>
<path fill-rule="evenodd" clip-rule="evenodd" d="M397.338 45.8992V50.4305C407.513 40.3609 415.228 35.3261 420.485 35.3261C423.84 35.3261 426.69 36.5009 429.038 38.8504L426.859 49.9271C426.522 51.6053 425.853 52.4445 424.845 52.4445C423.949 52.4445 423.337 51.9984 423 51.1019C421.77 48.3062 418.918 46.9062 414.447 46.9062C409.415 46.9062 403.713 50.0949 397.338 56.4723V71.0733C397.338 87.8561 397.675 98.2354 398.345 102.205C399.015 106.177 400.804 108.163 403.713 108.163H412.099V112.862H374.024V108.163H379.135C381.772 108.163 383.203 107.94 383.422 107.492C383.643 107.046 383.753 106.598 383.753 106.149V105.142C383.753 104.919 383.753 104.361 383.753 103.464V67.549C383.753 58.1506 383.753 53.2284 383.753 52.7801C383.072 45.844 381.035 42.3748 377.644 42.3748H369.497V37.8435C374.527 37.733 379.224 37.34 383.585 36.6687L397.17 34.6548C397.282 35.8869 397.338 37.1722 397.338 38.5148V41.8713C397.338 42.9909 397.338 44.3335 397.338 45.8992Z" fill="#003A7E"/>
<path fill-rule="evenodd" clip-rule="evenodd" d="M454.7 1.92838C456.936 1.92838 458.809 2.68307 460.32 4.1946C461.828 5.70504 462.583 7.5793 462.583 9.81628C462.583 11.9428 461.828 13.7889 460.32 15.3546C458.809 16.9224 456.936 17.7042 454.7 17.7042C452.462 17.7042 450.562 16.9484 448.998 15.438C447.43 13.9275 446.649 12.0554 446.649 9.81628C446.649 7.5793 447.43 5.70504 448.998 4.1946C450.562 2.68307 452.462 1.92838 454.7 1.92838ZM460.068 34.9904L462.416 34.6548C462.526 36.4456 462.583 38.2365 462.583 40.0252V45.2279C462.583 48.3614 462.583 51.4375 462.583 54.4584V71.0733C462.583 87.8561 462.919 98.2354 463.59 102.205C464.261 106.177 466.047 108.163 468.957 108.163H476.505V112.862H439.27V108.163H444.38C447.016 108.163 448.448 107.94 448.668 107.492C448.887 107.046 448.998 106.598 448.998 106.149V105.142C448.998 104.919 448.998 104.361 448.998 103.464V67.549C448.998 58.2632 448.998 53.341 448.998 52.7801C448.317 45.844 446.28 42.3748 442.888 42.3748H434.741V37.8435C439.66 37.6204 448.102 36.6687 460.068 34.9904Z" fill="#003A7E"/>
<path fill-rule="evenodd" clip-rule="evenodd" d="M510.383 43.5366V48.4166C517.538 43.1587 523.018 39.6636 526.821 37.9269C530.621 36.1934 534.871 35.3261 539.567 35.3261C547.17 35.3261 552.705 37.4526 556.173 41.7035C558.185 44.1657 559.443 46.7665 559.947 49.507C560.45 52.2507 560.701 57.4793 560.701 65.1994V71.0733C560.701 87.9687 561.037 98.374 561.708 102.289C562.378 106.207 564.166 108.163 567.075 108.163H574.288V112.862H537.89V108.163H542.503C545.139 108.163 546.565 107.94 546.785 107.492C547.006 107.046 547.115 106.598 547.115 106.149V105.142C547.115 104.919 547.115 104.361 547.115 103.464V68.8916C547.115 59.0471 546.165 52.4726 544.265 49.1724C542.361 45.8732 538.561 44.2209 532.859 44.2209C526.373 44.2209 518.88 47.5223 510.383 54.1228V71.0733C510.383 87.8561 510.72 98.2354 511.391 102.205C512.06 106.177 513.848 108.163 516.758 108.163H523.466V112.862H487.069V108.163H492.18C494.816 108.163 496.248 107.94 496.467 107.492C496.688 107.046 496.797 106.598 496.797 106.149V105.142C496.797 104.919 496.797 104.361 496.797 103.464V67.549C496.797 56.4723 496.456 49.507 495.778 46.6539C495.099 43.8008 493.459 42.3748 490.857 42.3748H482.876V37.8435C487.124 37.6204 491.708 37.1722 496.63 36.5009L510.215 34.6548C510.326 35.6563 510.383 36.7185 510.383 37.8435V40.2819C510.383 41.1524 510.383 42.2352 510.383 43.5366Z" fill="#003A7E"/>
<path fill-rule="evenodd" clip-rule="evenodd" d="M618.061 85.8422C622.532 85.8422 626.111 84.1087 628.795 80.6395C631.478 77.1725 632.821 72.6412 632.821 67.0455C632.821 59.1024 631.114 52.7249 627.705 47.9131C624.293 43.1035 619.847 40.6966 614.371 40.6966C609.785 40.6966 606.207 42.3748 603.636 45.7314C601.063 49.0879 599.778 53.7319 599.778 59.6611C599.778 67.1581 601.511 73.3969 604.978 78.3733C608.442 83.354 612.804 85.8422 618.061 85.8422ZM620.577 119.239C616.55 118.959 612.804 118.401 609.338 117.562C597.485 120.134 591.56 125.84 591.56 134.68C591.56 139.715 593.993 143.826 598.856 147.016C603.72 150.203 610.064 151.798 617.893 151.798C626.502 151.798 633.547 150.092 639.027 146.679C644.504 143.265 647.245 138.876 647.245 133.505C647.245 124.778 640.368 120.021 626.615 119.239H620.577ZM641.709 44.7244L639.864 44.5566C644.114 49.704 646.239 55.4102 646.239 61.675C646.239 69.9559 643.308 76.8639 637.454 82.4012C631.597 87.9395 624.332 90.7092 615.66 90.7092C612.054 90.7092 608.617 90.2631 605.353 89.3665C601.637 93.3933 599.778 96.6957 599.778 99.2684C599.778 101.282 600.957 102.738 603.319 103.631C605.681 104.53 610.067 105.2 616.478 105.646L630.481 106.652C649.149 107.995 658.482 115.435 658.482 128.974C658.482 137.365 654.428 144.134 646.322 149.281C638.214 154.426 627.563 157 614.371 157C603.859 157 595.612 155.126 589.632 151.378C583.648 147.629 580.658 142.511 580.658 136.022C580.658 127.405 586.973 120.469 599.611 115.212C592.677 112.639 589.212 109.17 589.212 104.806C589.212 101.34 593.07 95.6336 600.785 87.6883C591.28 82.543 586.527 75.1012 586.527 65.3672C586.527 56.8654 589.463 49.704 595.333 43.8853C601.204 38.0687 608.442 35.1582 617.055 35.1582C619.513 35.1582 622.98 35.6065 627.453 36.5009L630.808 37.1722C635.278 38.0687 639.753 38.5148 644.226 38.5148C647.802 38.5148 650.319 37.5652 651.774 35.6617C652.444 34.7674 653.058 34.3191 653.618 34.3191C654.735 34.3191 655.296 34.88 655.296 35.9974C655.296 36.333 655.128 37.2848 654.793 38.8504L654.122 40.6966L653.786 42.207C653.338 44.4461 651.548 45.5636 648.419 45.5636C648.084 45.5636 647.636 45.5083 647.076 45.3957C646.407 45.3957 645.957 45.3957 645.736 45.3957L641.709 44.7244Z" fill="#003A7E"/>
<path fill-rule="evenodd" clip-rule="evenodd" d="M345.253 124.739H353.65V126.08H352.073C351.391 126.08 351.023 126.131 350.966 126.231C350.908 126.333 350.88 126.441 350.88 126.557V141.109C350.88 143.765 350.678 145.802 350.274 147.216C349.869 148.631 349.149 149.887 348.11 150.983C345.859 153.322 342.8 154.491 338.934 154.491C335.153 154.491 332.311 153.468 330.407 151.416C329.31 150.234 328.618 148.76 328.329 146.999C328.156 146.077 328.069 144.402 328.069 141.976V135.653C328.069 131.322 327.983 128.643 327.81 127.619C327.637 126.593 327.175 126.08 326.425 126.08H324.087V124.739H334.605V126.08H333.029C332.346 126.08 331.978 126.131 331.921 126.231C331.864 126.333 331.835 126.441 331.835 126.557V140.72C331.835 143.029 331.864 144.474 331.922 145.051C332.066 146.726 332.441 148.096 333.047 149.164C334.374 151.476 336.697 152.63 340.016 152.63C343.45 152.63 345.946 151.491 347.504 149.208C348.34 147.995 348.861 146.552 349.062 144.877C349.178 144.07 349.235 142.523 349.235 140.242V135.653C349.235 131.322 349.149 128.643 348.976 127.619C348.803 126.593 348.34 126.08 347.591 126.08H345.253V124.739Z" fill="#003A7E"/>
<path fill-rule="evenodd" clip-rule="evenodd" d="M356.853 124.739H363.303L382.088 147.388V135.651C382.088 132.13 382.088 130.309 382.088 130.195C381.886 127.452 381.294 126.08 380.313 126.08H378.106V124.739H386.374V126.08H384.667C383.985 126.08 383.616 126.139 383.559 126.253C383.501 126.369 383.473 126.486 383.473 126.599V133.746L383.646 153.582C383.646 153.872 383.529 154.016 383.297 154.016C383.15 154.016 382.989 153.916 382.815 153.717L382.464 153.335L362.342 129.207L362.35 129.725C362.35 130.072 362.35 130.924 362.35 132.28C362.35 133.637 362.35 134.762 362.35 135.658V142.714C362.35 146.958 362.457 149.612 362.668 150.681C362.88 151.749 363.395 152.283 364.213 152.283H366.203V153.626H357.979V152.283H359.58C360.388 152.283 360.792 152.125 360.792 151.808V131.667C360.792 129.3 360.604 127.777 360.23 127.099C359.854 126.42 359.032 126.08 357.762 126.08H356.853V124.739Z" fill="#003A7E"/>
<path fill-rule="evenodd" clip-rule="evenodd" d="M400.743 152.283V153.626H390.225V152.283H391.87C392.649 152.283 393.039 152.125 393.039 151.808V135.653C393.039 131.322 392.945 128.643 392.758 127.619C392.569 126.593 392.102 126.08 391.351 126.08H389.057V124.739H399.575V126.08H397.955C397.415 126.08 397.081 126.118 396.953 126.189C396.825 126.262 396.761 126.384 396.761 126.557C396.761 126.587 396.761 126.63 396.761 126.686C396.761 126.746 396.761 126.803 396.761 126.86V142.712C396.761 147.043 396.848 149.721 397.021 150.746C397.194 151.771 397.655 152.283 398.406 152.283H400.743Z" fill="#003A7E"/>
<path fill-rule="evenodd" clip-rule="evenodd" d="M421.606 124.739H430.263V126.08H428.229C427.969 126.08 427.804 126.189 427.731 126.406C427.659 126.621 427.608 126.773 427.58 126.86L427.147 127.943L426.671 129.199L426.065 130.628L416.888 153.235C416.686 153.755 416.484 154.016 416.282 154.016C416.109 154.016 415.964 153.886 415.85 153.626L415.676 153.193L415.417 152.499L406.197 130.542C405.216 128.146 404.495 126.759 404.033 126.384C403.773 126.181 403.297 126.08 402.605 126.08H401.566V124.739H411.348V126.08H409.963C408.952 126.08 408.448 126.181 408.448 126.384C408.448 126.471 408.476 126.572 408.533 126.688C408.59 126.805 408.733 127.152 408.961 127.729L409.915 129.892L410.824 132.058L417.451 147.952C417.79 147.198 418.354 145.88 419.145 143.996C419.578 142.927 420.188 141.429 420.97 139.495L422.198 136.47L423.416 133.223C424.691 129.818 425.329 127.697 425.329 126.86C425.329 126.34 424.997 126.08 424.333 126.08H421.606V124.739Z" fill="#003A7E"/>
<path fill-rule="evenodd" clip-rule="evenodd" d="M431.129 124.739H452.901L452.469 127.9L452.426 128.463C452.396 128.78 452.238 128.938 451.951 128.938C451.664 128.938 451.505 128.797 451.477 128.514L451.434 128.215C451.26 126.965 448.758 126.34 443.925 126.34H440.041C439.495 126.34 439.157 126.377 439.027 126.45C438.898 126.519 438.833 126.657 438.833 126.858V136.952H443.335C446.019 136.952 447.685 136.843 448.333 136.626C448.984 136.41 449.308 135.854 449.308 134.959V133.659H450.52V141.369H449.308V140.415C449.308 139.434 449.163 138.887 448.874 138.771C448.356 138.569 446.509 138.467 443.335 138.467H438.833V142.481C438.833 146.8 438.92 149.468 439.093 150.49C439.265 151.511 439.727 152.024 440.478 152.024H443.941C449.135 152.024 452.207 151.183 453.16 149.507C453.304 149.279 453.463 149.164 453.637 149.164C453.924 149.164 454.069 149.295 454.069 149.555C454.069 149.729 454.011 150.002 453.896 150.378L452.901 153.626H432.297V152.283H433.942C434.721 152.283 435.111 152.125 435.111 151.808V135.653C435.111 131.322 435.017 128.643 434.83 127.619C434.641 126.593 434.173 126.08 433.423 126.08H431.129V124.739Z" fill="#003A7E"/>
<path fill-rule="evenodd" clip-rule="evenodd" d="M463.895 139.117C464.591 139.204 465.344 139.246 466.155 139.246C468.677 139.246 470.632 138.722 472.024 137.671C473.414 136.621 474.11 135.133 474.11 133.204C474.11 131.622 473.626 130.191 472.66 128.909C471.693 127.629 470.488 126.845 469.046 126.555C468.324 126.413 467.127 126.34 465.453 126.34C464.761 126.34 464.328 126.369 464.155 126.426C463.981 126.486 463.895 126.628 463.895 126.858V139.117ZM465.843 140.589C465.41 140.589 464.761 140.546 463.895 140.46V142.712C463.895 147.043 463.981 149.721 464.155 150.746C464.328 151.771 464.789 152.283 465.54 152.283H467.877V153.626H457.359V152.283H459.004C459.783 152.283 460.172 152.125 460.172 151.808V135.653C460.172 131.322 460.078 128.643 459.891 127.619C459.703 126.593 459.235 126.08 458.484 126.08H456.19V124.739H468.526C471.354 124.739 473.597 125.432 475.257 126.817C476.916 128.205 477.746 130.096 477.746 132.494C477.746 134.429 477.139 136.046 475.926 137.345C474.713 138.645 473.008 139.497 470.814 139.901L475.403 146.322C477.814 149.803 479.507 151.746 480.482 152.152C480.684 152.239 481.057 152.283 481.601 152.283H482.334V153.626H477.616C476.866 153.626 476.346 153.497 476.058 153.237C475.047 152.288 473.402 150.014 471.123 146.417L469.046 143.135L467.271 140.589H466.925C466.636 140.589 466.276 140.589 465.843 140.589Z" fill="#003A7E"/>
<path fill-rule="evenodd" clip-rule="evenodd" d="M495.276 123.872C497.353 123.872 499.042 124.161 500.34 124.739L500.427 127.727V128.03C500.427 128.463 500.268 128.678 499.951 128.678C499.632 128.678 499.445 128.448 499.388 127.987C499.272 127.293 498.702 126.716 497.678 126.253C496.653 125.792 495.434 125.561 494.021 125.561C492.231 125.561 490.745 126.051 489.562 127.034C488.379 128.015 487.787 129.258 487.787 130.757C487.787 132.028 488.191 133.089 488.999 133.943C489.807 134.793 491.149 135.581 493.025 136.302L495.361 137.211C497.873 138.192 499.632 139.219 500.643 140.287C501.97 141.702 502.634 143.404 502.634 145.398C502.634 148.024 501.609 150.198 499.561 151.915C497.511 153.633 494.914 154.491 491.77 154.491C489.201 154.491 486.806 154.072 484.584 153.235L483.979 149.468C483.948 149.382 483.935 149.251 483.935 149.077C483.935 148.703 484.109 148.515 484.455 148.515C484.772 148.515 485.002 148.787 485.147 149.329C485.407 150.331 486.229 151.174 487.615 151.86C488.999 152.546 490.586 152.891 492.376 152.891C494.511 152.891 496.25 152.332 497.592 151.214C498.933 150.096 499.604 148.663 499.604 146.914C499.604 144.279 497.577 142.215 493.525 140.726L491.331 139.87C487.006 138.252 484.844 135.708 484.844 132.239C484.844 129.869 485.84 127.884 487.83 126.278C489.822 124.675 492.303 123.872 495.276 123.872Z" fill="#003A7E"/>
<path fill-rule="evenodd" clip-rule="evenodd" d="M517.133 152.283V153.626H506.616V152.283H508.26C509.04 152.283 509.429 152.125 509.429 151.808V135.653C509.429 131.322 509.335 128.643 509.148 127.619C508.96 126.593 508.492 126.08 507.742 126.08H505.448V124.739H515.965V126.08H514.345C513.805 126.08 513.471 126.118 513.344 126.189C513.215 126.262 513.152 126.384 513.152 126.557C513.152 126.587 513.152 126.63 513.152 126.686C513.152 126.746 513.152 126.803 513.152 126.86V142.712C513.152 147.043 513.239 149.721 513.412 150.746C513.584 151.771 514.046 152.283 514.796 152.283H517.133Z" fill="#003A7E"/>
<path fill-rule="evenodd" clip-rule="evenodd" d="M535.096 126.34H533.364V142.712C533.364 147.072 533.451 149.756 533.624 150.768C533.798 151.778 534.259 152.283 535.01 152.283H538.169V153.626H525.399V152.283H528.399C529.199 152.283 529.599 152.125 529.599 151.808C529.599 151.691 529.599 151.605 529.599 151.547V126.34H527.867C523.394 126.34 520.797 127.12 520.075 128.678C519.874 129.084 519.657 129.286 519.427 129.286C519.08 129.286 518.907 129.157 518.907 128.896C518.907 128.809 518.95 128.636 519.037 128.376L520.249 124.739H542.713L543.925 128.376C543.983 128.665 544.012 128.837 544.012 128.896C544.012 129.157 543.854 129.286 543.536 129.286C543.247 129.286 543.016 129.084 542.843 128.678C542.151 127.12 539.568 126.34 535.096 126.34Z" fill="#003A7E"/>
<path fill-rule="evenodd" clip-rule="evenodd" d="M561.454 140.287L561.021 141.067V142.712C561.021 147.072 561.108 149.756 561.281 150.768C561.454 151.778 561.915 152.283 562.667 152.283H565.004V153.626H554.485V152.283H556.088C556.895 152.283 557.3 152.125 557.3 151.808V141.196L551.196 130.671C550.042 128.678 549.161 127.323 548.556 126.599C548.267 126.253 547.617 126.08 546.609 126.08H545.7V124.739H555.87V126.08H553.62C553.245 126.08 553.058 126.153 553.058 126.297C553.058 126.384 553.372 126.993 553.999 128.123L554.729 129.425L555.797 131.185L560.411 139.312C560.984 138.33 561.786 136.833 562.82 134.813L564.454 131.658L565.53 129.497L565.917 128.632C566.375 127.593 566.605 126.903 566.605 126.555C566.605 126.24 566.345 126.08 565.827 126.08H563.057V124.739H571.324V126.08H570.415C569.866 126.08 569.512 126.109 569.353 126.166C569.195 126.226 568.957 126.543 568.639 127.12L568.207 127.9C567.86 128.505 567.197 129.719 566.216 131.538L563.922 135.74C563.084 137.298 562.262 138.815 561.454 140.287Z" fill="#003A7E"/>
</svg>
